<?xml version="1.0" standalone="no"?>
<!DOCTYPE svg PUBLIC "-//W3C//DTD SVG 1.1//EN" "http://www.w3.org/Graphics/SVG/1.1/DTD/svg11.dtd" >
<!--
2013-9-30: Created.
-->
<svg>
<metadata>
Created by iconfont
</metadata>
<defs>

<font id="iconfont" horiz-adv-x="1024" >
  <font-face
    font-family="iconfont"
    font-weight="500"
    font-stretch="normal"
    units-per-em="1024"
    ascent="896"
    descent="-128"
  />
    <missing-glyph />
    
    <glyph glyph-name="x" unicode="x" horiz-adv-x="1001"
d="M281 543q-27 -1 -53 -1h-83q-18 0 -36.5 -6t-32.5 -18.5t-23 -32t-9 -45.5v-76h912v41q0 16 -0.5 30t-0.5 18q0 13 -5 29t-17 29.5t-31.5 22.5t-49.5 9h-133v-97h-438v97zM955 310v-52q0 -23 0.5 -52t0.5 -58t-10.5 -47.5t-26 -30t-33 -16t-31.5 -4.5q-14 -1 -29.5 -0.5
t-29.5 0.5h-32l-45 128h-439l-44 -128h-29h-34q-20 0 -45 1q-25 0 -41 9.5t-25.5 23t-13.5 29.5t-4 30v167h911zM163 247q-12 0 -21 -8.5t-9 -21.5t9 -21.5t21 -8.5q13 0 22 8.5t9 21.5t-9 21.5t-22 8.5zM316 123q-8 -26 -14 -48q-5 -19 -10.5 -37t-7.5 -25t-3 -15t1 -14.5
t9.5 -10.5t21.5 -4h37h67h81h80h64h36q23 0 34 12t2 38q-5 13 -9.5 30.5t-9.5 34.5q-5 19 -11 39h-368zM336 498v228q0 11 2.5 23t10 21.5t20.5 15.5t34 6h188q31 0 51.5 -14.5t20.5 -52.5v-227h-327z" />
    

    
    <glyph glyph-name="tubiao19" unicode="&#59124;" d="M380.416-10.144c-10.432 0-20.864 3.968-28.8 11.968L75.968 277.408c-15.936 15.936-15.936 41.664 0 57.6 15.872 15.872 41.664 15.872 57.536 0l246.912-246.848 510.08 510.016c15.872 15.936 41.664 15.936 57.536 0 15.936-15.936 15.936-41.664 0-57.6l-538.816-538.816C401.28-6.176 390.848-10.144 380.416-10.144z"  horiz-adv-x="1024" />

    
    <glyph glyph-name="icon" unicode="&#58897;" d="M975.994-73.946l-199.475 187.113c115.098 158.103 97.101 380.864-49.207 518.099-158.479 148.643-407.428 140.682-556.058-17.783-148.643-158.456-140.682-407.402 17.784-556.058 146.303-137.241 369.759-140.966 520.184-16.005l199.475-187.112c19.813-18.585 50.94-17.59 69.524 2.224 18.585 19.812 17.59 50.939-2.224 69.523l-0.004-0.001zM234.447 105.854c-131.715 123.541-138.334 330.493-14.783 462.218 123.56 131.715 330.515 138.334 462.214 14.783 131.73-123.566 138.349-330.514 14.783-462.218-123.536-131.725-330.49-138.344-462.214-14.783v0zM320.376 476.506c-9.86 9.859-25.833 9.859-35.694 0-34.514-34.514-53.502-80.373-53.502-129.183 0-48.789 18.986-94.676 53.502-129.139 4.931-4.929 11.388-7.39 17.847-7.39 6.459 0 12.917 2.461 17.847 7.39 9.867 9.867 9.867 25.864 0 35.7-24.947 24.947-38.707 58.135-38.707 93.439 0 35.328 13.754 68.507 38.707 93.483 9.866 9.868 9.866 25.842-0.001 35.7v0zM294.689 456.158z"  horiz-adv-x="1024" />

    
    <glyph glyph-name="xinlangweibo" unicode="&#58888;" d="M436.567495 340.796148c-126.187981-5.822612-228.203422-73.431429-228.203422-157.743674 0-84.191494 102.014418-147.501402 228.203422-141.605112 126.287241 5.77247 228.522694 84.804455 228.522694 169.020508C665.089166 294.560104 562.853713 346.61876 436.567495 340.796148zM522.550799 128.708775c-38.654368-49.870828-115.120924-74.216305-189.361789-34.001395-35.33988 19.162432-34.04949 56.82317-34.04949 56.82317S284.472472 270.412125 411.398256 285.274624C538.508235 300.016373 561.194934 178.627698 522.550799 128.708775zM437.428096 208.330184c-8.133238-5.89629-9.78997-17.147542-5.380544-24.172539 4.249791-7.198959 14.125719-8.035 22.134113-2.039449 7.862062 6.215562 10.908444 17.000186 6.65763 24.197098C456.588481 213.317779 446.836373 215.332668 437.428096 208.330184zM377.261785 191.968541c-23.718191-2.454912-40.670282-23.090904-40.670282-42.868343 0-19.803022 19.088754-33.485649 42.784432-30.709419 23.608697 2.701528 42.820248 20.930705 42.820248 40.683585C422.196183 178.898875 404.483776 194.573879 377.261785 191.968541zM821.558823 749.346031 198.217992 749.346031c-75.359338 0-136.445602-61.072961-136.445602-136.444579l0-623.316272c0-75.370595 61.086264-136.444579 136.445602-136.444579l623.340831 0c75.359338 0 136.432299 61.073984 136.432299 136.444579l0 623.316272C957.991122 688.273071 896.917138 749.346031 821.558823 749.346031zM777.890254 154.552373c-52.05661-110.50172-223.609801-164.278507-350.731036-154.328901-120.821763 9.507538-276.159644 49.674353-292.214295 195.874109 0 0-8.488325 66.206888 55.717999 151.897525 0 0 92.333942 128.951931 199.865004 165.754115 107.652835 36.604686 120.206756-25.352411 120.206756-61.981656-5.712095-31.077809-16.436344-49.355081 23.964808-36.802184 0 0 105.835444 49.060369 149.35461 5.553483 35.156708-35.156708 5.799076-83.529415 5.799076-83.529415s-14.544251-16.116049 15.439644-21.914102C735.362672 309.05626 829.884442 265.252615 777.890254 154.552373zM673.553954 459.873174c-11.523451 0-20.770046 9.311063-20.770046 20.759813 0 11.619642 9.246595 20.955264 20.770046 20.955264 0 0 129.72555 23.953551 114.199948-115.415636 0-0.810459-0.100284-1.449002-0.281409-2.185782-1.473561-9.876951-10.147104-17.467837-20.367887-17.467837-11.558244 0-20.954241 9.237385-20.954241 20.784372C746.149343 387.301322 766.699378 480.436512 673.553954 459.873174zM892.803447 348.412616l-0.158612 0c-3.416819-23.559579-15.122419-25.452695-29.077246-25.452695-16.669658 0-30.18037 10.466376-30.18037 27.170826 0 14.446014 5.993504 29.137621 5.993504 29.137621 1.793856 6.091742 15.893992 43.925419-9.311063 100.478436-46.099944 77.484745-139.012054 78.614475-149.969617 74.16821-11.06501-4.299933-27.40414-6.509251-27.40414-6.509251-16.778128 0-30.230512 13.659091-30.230512 30.266327 0 13.929244 9.311063 25.721825 22.013363 29.334095 0 0 0.281409 0.466628 0.748037 0.563842 0.910743 0.196475 1.843998 1.105171 2.849908 1.178849 12.94687 2.506077 59.059094 11.546987 103.882975 1.057075C832.196091 591.060005 942.328397 513.502605 892.803447 348.412616z"  horiz-adv-x="1024" />

    
    <glyph glyph-name="wodetuiguang" unicode="&#58946;" d="M967.111111 499.111111 967.111111 698.222222l-8.334222 8.334222L607.089778 354.869333l-40.220444 40.220444L918.556444 746.776889 910.222222 755.111111l-227.555556 0-56.888889 56.888889 398.222222 0 0-369.777778L967.111111 499.111111zM56.888889-155.111111l796.444444 0 0 398.222222 56.888889 0 0-398.222222c0-27.249778-29.639111-56.888889-56.888889-56.888889L56.888889-212c-28.359111 0-56.888889 28.302222-56.888889 56.888889L0 612.888889c0 25.457778 3.868444 56.888889 56.888889 56.888889l369.777778 0 0-56.888889L56.888889 612.888889 56.888889-155.111111z"  horiz-adv-x="1024" />

    
    <glyph glyph-name="tianjia1" unicode="&#58898;" d="M511.9872 812c-16.332596 0-29.554831-13.286234-29.554831-29.529231l0-452.947938L29.535631 329.522831C13.292634 329.535631 0.0064 316.300596 0.0064 300.0064c0-16.281396 13.286234-29.529231 29.529231-29.529231L482.43237 270.477169l0-452.896739c0-16.294196 13.222235-29.58043 29.554831-29.58043 16.319796 0 29.529231 13.273434 29.529231 29.58043L541.516431 782.483569C541.516431 798.726566 528.306996 812 511.9872 812zM994.451569 329.535631l-327.675904 0c-16.319796 0-29.529231-13.235035-29.529231-29.529231 0-16.281396 13.196635-29.529231 29.529231-29.529231l327.675904 0c16.255797 0 29.529231 13.247834 29.529231 29.529231C1023.9808 316.300596 1010.707366 329.535631 994.451569 329.535631z"  horiz-adv-x="1024" />

    
    <glyph glyph-name="wodedingdan" unicode="&#58894;" d="M831.141 563.131l-45.023 0c-4.12 0-8.447-0.944-12.396-2.988l0-51.849c3.949-1.808 8.276-2.639 12.396-2.639l28.313 0c26.832 0 45.03-18.214 45.03-45.051l0.784-493.505c0-26.83-18.191-45.014-45.029-45.014L361.767-77.915c-26.809 0-56.491 18.184-56.491 45.014l-0.063 38.817-60.415 0 0-46.419c0-55.576 33.533-94.839 94.861-94.839l486.729 0c61.313 0 94.868 32.525 94.868 94.839L921.256 472.093C921.221 523.847 889.61 563.131 831.141 563.131zM715.107 684.189l-25.579 0c-12.468 0-26.837-8.588-26.837-30.437 0-19.488 14.369-27.04 26.837-27.04l8.863 0c26.837 0 45.029-18.22 45.029-45.051l0.791-493.503c0-26.824-18.191-45.016-45.036-45.016L245.734 43.142c-26.809 0-56.491 18.191-56.491 45.016l-0.792 493.503c0 26.831 18.185 45.051 45.03 45.051l6.09 0c18.3 0 24.578 15.362 24.578 27.838 0 21.46-12.108 29.638-24.578 29.638l-20.754 0c-63.243 0-90.052-39.277-90.052-91.038l0-512.595c0-55.576 33.533-94.848 94.861-94.848l486.729 0c61.314 0 94.868 32.54 94.868 94.848L805.223 593.151C805.188 644.912 773.569 684.189 715.107 684.189L715.107 684.189 715.107 684.189 715.107 684.189zM275.329 490.76c0-12.49 8.452-27.838 28.443-27.838l327.561 0c19.444 0 28.184 15.348 28.184 27.838 0 12.461-7.97 26.226-24.21 25.434L307.774 516.194c-29.415 0-32.417-22.669-32.417-35.138l0 0 0 9.704L275.329 490.76zM638.236 386.396 300.95 386.396c-12.461 0-22.993-13.513-22.993-26.003 0-12.439 7.933-26.895 20.395-26.895l338.222 0c12.448 0 25.606 14.433 25.606 26.895C661.193 373.82 650.67 386.396 638.236 386.396L638.236 386.396 638.236 386.396 638.236 386.396zM632.354 247.693 295.068 247.693c-12.461 0-22.994-10.539-22.994-22.986 0-12.49 12.44-27.65 24.909-27.65l338.222 0c12.44 0 21.058 15.16 21.058 27.65C655.319 238.112 644.78 247.693 632.354 247.693L632.354 247.693 632.354 247.693 632.354 247.693zM641.944 655.976c0-10.82-8.775-19.596-19.596-19.596l-320.88 0c-10.82 0-19.596 8.776-19.596 19.596l0 0c0 10.821 8.776 19.589 19.596 19.589l320.88 0C633.169 675.565 641.944 666.797 641.944 655.976L641.944 655.976zM641.944 717.354c0-5.73-4.65-10.374-10.375-10.374L292.246 706.98c-5.729 0-10.374 4.644-10.374 10.374l0 0c0 5.73 4.644 10.374 10.374 10.374l339.323 0C637.294 727.729 641.944 723.085 641.944 717.354L641.944 717.354z"  horiz-adv-x="1024" />

    
    <glyph glyph-name="shanchu" unicode="&#58895;" d="M629.082602 430.640386c7.356548 0 13.322423-5.965875 13.322423-13.322423l0-399.680888c0-7.356548-5.965875-13.322423-13.322423-13.322423l-26.64587 0c-7.356548 0-13.322423 5.965875-13.322423 13.322423L589.114308 417.316939c0 7.356548 5.965875 13.322423 13.322423 13.322423L629.082602 430.639363zM415.919734 430.640386c7.356548 0 13.322423-5.965875 13.322423-13.322423l0-399.680888c0-7.356548-5.965875-13.322423-13.322423-13.322423l-26.64587 0c-7.356548 0-13.322423 5.965875-13.322423 13.322423L375.951441 417.316939c0 7.356548 5.965875 13.322423 13.322423 13.322423L415.919734 430.639363zM815.597553 510.579019l-13.320377 0 0-586.195839c0-29.432333-23.860431-53.293787-53.290717-53.293787L269.366937-128.910607c-29.430286 0-53.290717 23.861454-53.290717 53.293787L216.07622 244.122365l79.936587 0 0-293.096385 426.325735 0L722.338542 510.579019 296.012807 510.579019l0-133.229351-79.936587 0L216.07622 510.579019l-13.322423 0c-22.064528 0-39.968293 17.889439-39.968293 39.968293 0 22.080901 17.902742 39.968293 39.968293 39.968293l146.549727 0 0 79.936587c0 29.430286 23.863501 53.290717 53.293787 53.290717l213.160821 0c29.430286 0 53.290717-23.860431 53.290717-53.290717l0-79.936587 146.549727 0c22.064528 0 39.968293-17.887392 39.968293-39.968293C855.565846 528.468458 837.662081 510.579019 815.597553 510.579019zM589.111239 643.803253 429.239088 643.803253l0-53.287647L589.111239 590.515606 589.111239 643.803253z"  horiz-adv-x="1024" />

    
    <glyph glyph-name="duigou" unicode="&#58958;" d="M1012.736 718.080c-15.104 15.36-39.424 15.36-54.528 0l-573.44-584.704-318.72 324.864c-15.104 15.36-39.424 15.36-54.528 0v0c-15.104-15.36-15.104-40.192 0-55.552l345.856-352.512c15.104-15.36 39.424-15.36 54.528 0l600.832 612.096c15.104 15.616 15.104 40.448 0 55.808z"  horiz-adv-x="1025" />

    
    <glyph glyph-name="guanbi" unicode="&#58907;" d="M555.467456 384.81826l457.143281 456.95704c12.34618 12.389159 12.344133 32.445945-0.020466 44.942551-12.370739 12.407578-32.554416 12.323667-44.921062 0.063445L511.196194 430.28679 56.286788 885.321039c-12.425998 12.280688-32.424456 12.472047-44.876036 0.040932C-0.978407 872.828526-0.955894 852.833138 11.434288 840.381558l457.097233-457.199563L11.387216-73.775045c-12.34618-12.389159-12.344133-32.445945 0.020466-44.942551 12.370739-12.407578 32.554416-12.323667 44.921062-0.063445L512.802783 337.713464l454.909406-455.035272c12.425998-12.280688 32.424456-12.472047 44.876036-0.040932 12.389159 12.533445 12.366646 32.528833-0.022513 44.980413L555.467456 384.81826z"  horiz-adv-x="1024" />

    
    <glyph glyph-name="tianjia" unicode="&#58908;" d="M507.84256 380.96896M507.84256 380.96896M804.70016 831.52896c-132.3008 0-592.62976 0-592.62976 0-72.37632 0-154.8288-63.26272-154.8288-161.56672 0 0 0-522.07616 0-580.8128 0-74.87488 61.05088-158.74048 159.744-158.74048 130.27328 0 445.0304 0 583.94624 0 46.05952 0 157.45024 36.51584 157.45024 165.43744 0 142.6432 0 515.15392 0 574.70976C958.40256 781.39392 863.4368 831.52896 804.70016 831.52896zM912.7936 94.86336c0-119.93088-113.27488-119.02976-113.27488-119.02976s-462.68416 0-579.2768 0-118.35392 113.39776-118.35392 113.39776L101.888 670.53568c0 69.14048 53.5552 116.9408 118.35392 116.9408 0 0 451.91168 0 570.368 0s122.20416-108.72832 122.20416-108.72832S912.7936 214.85568 912.7936 94.86336zM218.7264 403.43552 218.7264 359.09632 485.29408 359.09632 485.29408 91.83232 530.35008 91.83232 530.35008 358.37952 796.91776 358.37952 796.91776 403.43552 530.35008 403.43552 530.35008 670.04416 485.29408 670.04416 485.29408 403.43552Z"  horiz-adv-x="1024" />

    
    <glyph glyph-name="xiangshang" unicode="&#58970;" d="M265.909 504.042c12.105-12.106 31.734-12.106 43.84 0l171.25 171.25 0-468.786c0-17.121 13.879-31 31-31 17.121 0 31 13.879 31 31L542.999 675.292l171.25-171.25c12.106-12.106 31.734-12.106 43.841 0 12.106 12.106 12.106 31.734 0 43.841L533.93 772.042c-11.937 11.938-31.941 11.953-43.87-0.01l-224.151-224.15C253.803 535.776 253.803 516.148 265.909 504.042 278.014 491.936 253.803 516.148 265.909 504.042zM896 387.833c-17.121 0-31-13.879-31-31L865 72.5 159 72.5 159 356.833c0 17.121-13.879 31-31 31s-31-13.879-31-31L97 41.5c0-16.807 14.042-31 31-31l768 0c17.121 0 31 13.879 31 31L927 356.833C927 373.954 913.121 387.833 896 387.833z"  horiz-adv-x="1024" />

    
    <glyph glyph-name="huiyuanzhongxin" unicode="&#59105;" d="M204.823945 132.674974c-46.267766 0-83.775009 37.507242-83.775009 83.775009 0 46.264697 37.507242 83.775009 83.775009 83.775009L350.077144 300.224991c3.595898 21.318538 9.238408 41.802058 16.659425 61.552891-45.176922 14.314007-78.136591 56.082296-78.136591 105.997126L288.599977 635.326049c0 61.693084 50.006927 111.700011 111.700011 111.700011 61.688991 0 111.700011-50.006927 111.700011-111.700011l0-102.329597c17.715477 10.311857 36.262902 19.000749 55.850006 25.958208l0 76.371388c0 92.539626-75.014484 167.550017-167.550017 167.550017-92.539626 0-167.550017-75.011414-167.550017-167.550017l0-167.550017c0-43.104727 16.737196-82.009805 43.48335-111.700011l-71.408353 0c-77.114308 0-139.625014-62.514799-139.625014-139.625014 0-77.114308 62.510706-139.625014 139.625014-139.625014l186.101535 0c-10.307763 17.715477-18.99768 36.262902-25.958208 55.850006L204.823945 132.675998zM679.550017 523.626038c-154.225547 0-279.251052-125.025505-279.251052-279.251052s125.025505-279.251052 279.251052-279.251052c154.222477 0 279.251052 125.025505 279.251052 279.251052S833.772494 523.626038 679.550017 523.626038zM679.550017 34.936953c-115.671463 0-209.438033 93.76657-209.438033 209.438033s93.76657 209.438033 209.438033 209.438033 209.438033-93.76657 209.438033-209.438033S795.22148 34.936953 679.550017 34.936953zM678.871565 203.984067 577.967434 304.888198 544.332383 271.253146 645.237537 170.352085 678.875658 136.713964 712.509686 170.349015 813.417911 271.25724 779.782859 304.891268Z"  horiz-adv-x="1024" />

    
    <glyph glyph-name="yue" unicode="&#58886;" d="M698.813245 628.055458 562.193681 392.507768l107.652835 0 0-52.055586L544.418852 340.452181l0-71.730695 125.427664 0 0-52.710502L544.418852 216.010985l0-104.426351-64.517409 0L479.901443 216.012008 349.878111 216.012008l0 52.710502 130.023332 0 0 71.730695L349.878111 340.453205l0 52.055586 110.932532 0L325.512167 628.055458l72.750931 0c63.203484-117.002784 101.603049-191.184297 115.216091-222.540446l1.318018 0c4.605901 12.895705 17.22736 38.921451 37.860283 78.0711l77.357855 144.469346L698.813245 628.055458 698.813245 628.055458zM698.813245 628.055458M512.156054-127.305175c-17.950837 0-35.905768 4.14132-50.231031 12.403494L104.906793 91.232097c-28.644387 16.539698-50.236148 53.948703-50.236148 87.013773l0 412.228669c0 33.066093 21.591761 70.466911 50.236148 87.009679L461.91479 883.605715c28.649504 16.525372 71.829955 16.525372 100.474342 0l357.023346-206.121498c28.643364-16.542768 50.238195-53.94461 50.238195-87.009679l0-358.406856c0-15.196097-12.32163-27.517727-27.517727-27.517727-15.195074 0-27.52182 12.32163-27.52182 27.517727L914.611126 590.474538c0 13.237489-11.254322 32.730449-22.715351 39.333844L534.871405 835.931926c-11.478426 6.637164-33.963533 6.637164-45.440935 0L132.423497 629.808382c-11.460006-6.603395-22.714328-26.096355-22.714328-39.333844l0-412.228669c0-13.241582 11.259438-32.734542 22.714328-39.346123l357.025393-206.132754c11.476379-6.631024 33.95023-6.608511 45.423539 0l357.141026 206.217688c13.141298 7.614421 29.989011 3.103688 37.591153-10.075473 7.599072-13.158694 3.093455-29.996175-10.076496-37.598316L562.405505-114.890424C548.096614-123.153622 530.115078-127.305175 512.156054-127.305175L512.156054-127.305175zM512.156054-127.305175"  horiz-adv-x="1024" />

    
    <glyph glyph-name="shouye" unicode="&#58979;" d="M169.601594-59.215156c-0.122917 2.316429-0.357158 4.642852-0.357158 6.969275-0.017988 117.940636 0.02938 235.878474-0.139905 353.82011-0.007595 6.066887 1.06128 8.459265 7.813702 8.157469 13.518235-0.60459 27.113617-0.72251 40.616862 0.030979 7.559275 0.423713 8.49524-2.30144 8.479651-8.916954-0.20626-98.090295-0.151297-196.176392-0.126914-294.265688 0.002998-9.89629-1.290725-8.897967 9.004295-8.90796 183.567541-0.009993 367.133683-0.009993 550.700825 0.009993 10.315006 0 8.906961-1.01831 8.911958 8.947933 0.035976 98.31814 0.075949 196.65127-0.108926 294.969211-0.015989 6.075881 1.073272 8.408299 7.803709 8.128489 14.219359-0.588601 28.484687-0.359756 42.72803-0.074949 4.653845 0.094936 6.40166-0.814448 6.391467-6.001931-0.149898-119.57273-0.114922-239.154253-0.139905-358.722986 0-1.388059-0.289804-2.766125-0.449695-4.143191C623.685925-59.215156 396.645458-59.215156 169.601594-59.215156zM63.086411 358.428481c2.258868 0.503659 3.250196 2.535281 4.633259 4.009282 146.158505 155.56073 292.28563 311.15084 438.406161 466.752342 0.945359 1.006717 1.721833 2.171927 2.576253 3.262788 3.36272 0.816446 4.402015-2.191914 6.008926-3.906351C636.081521 699.405899 757.404064 570.21589 878.729405 441.031876c24.45422-26.040345 48.899646-52.090483 73.404032-78.090455 1.543953-1.63789 2.657198-3.865379 5.113533-4.508943 0-0.463686 0-0.933367 0-1.403049-12.146764-11.233384-24.41045-22.346849-36.368342-33.770903-3.623543-3.464651-5.611196-4.249119-9.626473 0.02998-119.892513 127.918871-239.954711 255.681048-359.993125 383.467009-12.142767 12.932232-24.455419 25.720561-36.329369 38.897627-3.738465 4.148587-5.710129 4.063645-9.515548-0.004997-61.883443-66.143555-123.927177-132.136012-185.94353-198.15625-70.323721-74.872436-140.69321-149.703101-210.887418-224.693058-3.571978-3.815413-5.306802-3.174847-8.615159-0.020986-12.135172 11.583147-24.564345 22.859501-36.881994 34.251777C63.086411 357.499112 63.086411 357.963797 63.086411 358.428481zM623.779861 181.432085c0-40.174762-0.130911-80.337331 0.144902-120.5011 0.038974-5.700135-1.687856-6.878336-6.980267-6.748425-14.470189 0.348764-28.958366 0.39873-43.427356-0.019986-5.387347-0.149898-6.491599 1.467005-6.481605 6.608519 0.190871 61.183318 0.009993 122.367635 0.27981 183.551152 0.030979 6.819376-1.272137 9.060857-8.666124 8.951931-32.215158-0.475677-64.448704-0.180877-96.675254-0.218852-9.873306-0.011992-8.775051 1.211179-8.782046-9.132808-0.032578-60.717633-0.114922-121.439464 0.136907-182.1531 0.025583-6.139837-1.417439-7.838685-7.618834-7.627828-14.696436 0.509654-29.420453 0.289804-44.128881 0.078946-3.919343-0.057961-5.119929 0.970342-5.115532 5.013601 0.11752 81.733385 0.109526 163.469767 0.017988 245.201154-0.005596 3.784434 0.828438 5.208469 4.950643 5.202473 72.390719-0.119919 144.782438-0.158892 217.172157 0.047967 5.513262 0.020986 5.218462-2.615227 5.208469-6.358689C623.760874 262.695788 623.779861 222.062338 623.779861 181.432085zM510.465089 593.530482c-62.455455 0.224848-113.801642-50.896892-113.862002-113.367937-0.05936-62.811214 50.515151-113.46667 113.382327-113.576595 62.923138-0.104929 113.734688 50.375645 113.839417 113.098119C623.924763 542.301815 573.148389 593.303236 510.465089 593.530482zM567.147458 478.972553c-0.8854-31.532621-26.88777-56.50449-58.198342-55.88551-30.623038 0.606988-56.059392 26.727679-55.539744 57.03573 0.549627 32.217556 25.982784 56.90322 58.09701 56.392566C542.432215 536.025671 567.99988 509.5816 567.147458 478.972553z"  horiz-adv-x="1024" />

    
    <glyph glyph-name="artboard7" unicode="&#59080;" d="M938.714176 470.075336 878.169434 491.588479C863.623718 496.800681 851.881414 507.94423 845.977062 522.184997 840.033504 536.595716 840.433286 552.780601 847.095066 566.780812L874.669907 624.795491 884.363219 645.189242 868.398317 661.157564 789.197005 740.37585 773.225658 756.350621 752.82528 746.650004 694.835424 719.075146C680.818029 712.43988 664.625325 712.02947 650.283642 717.962641 636.007941 723.884031 624.859376 735.605546 619.642682 750.207912L598.153928 810.710098 590.592305 832 567.999428 832 455.941155 832 432.915766 832 425.599532 810.167884 404.090998 745.985027C394.139743 711.634461 361.225078 702.770954 327.327094 716.277888L271.945795 744.458442 251.388459 754.865716 234.999321 738.66968 155.738591 660.342823 139.51974 644.315066 149.37419 623.752238 176.94314 566.22538C192.848852 534.699764 184.079297 502.175379 148.028361 492.221928L85.312117 470.084666 64 462.532828 64 439.922285 64 327.958857 64 305.390102 85.259559 297.815153 145.8043 276.242581C160.385213 271.06878 172.101618 259.940314 178.034358 245.66864 183.966499 231.285427 183.56671 215.100544 176.904936 201.100333L149.330092 143.085651 139.632922 122.683782 155.610166 106.715098 234.870895 27.496806 251.70024 10.67648 272.65391 21.95008 330.64377 53.15008C361.220639 65.218598 394.125474 56.357741 403.684928 23.199501L425.599532-42.286739 432.915766-64.118854 455.941155-64.118854 567.999428-64.118854 590.58207-64.118854 598.149352-42.84183 619.539054 17.299885C624.824227 32.101466 636.1379 44.042874 650.598304 50.069331 664.677011 55.902586 680.587443 55.495302 694.323469 48.942298L752.773728 21.167974 773.170854 11.475706 789.137587 27.445862 868.338906 106.664147 884.303802 122.632474 874.61049 143.026221 847.041542 201.028506C840.409837 215.00681 839.999482 231.184358 845.917645 245.458432 851.833325 259.763922 863.559514 270.892689 878.224979 276.134172L938.792902 297.833896 960 305.431786 960 327.958857 960 439.922285 960 462.511921 938.714176 470.075336 938.714176 470.075336ZM917.285824 409.769235 896 439.922285 896 327.958857 917.207098 358.083818 856.662355 336.39239C825.026067 325.085493 799.617318 300.971261 786.786285 269.942747 773.944026 238.968416 774.833101 203.918362 789.228838 173.575078L816.807635 115.552064 823.079219 151.914138 743.877907 72.695853 780.241766 78.973741 721.835994 106.726886C691.75817 121.076064 656.927232 121.967686 626.039388 109.169715 594.851917 96.172224 570.606739 70.581811 559.252659 38.783578L537.849505-21.395885 567.999428-0.118854 455.941155-0.118854 486.28278-21.950976 464.774245 42.231885C443.261378 116.957248 368.463988 137.099251 303.55377 111.023968L242.330593 78.310496 280.113608 72.763763 200.852878 151.982048 207.132951 115.611494 234.701901 173.613779C249.145627 203.968326 250.011156 239.008141 237.165563 270.15318 224.259482 301.200097 198.857885 325.32702 167.24567 336.544039L106.740441 358.102562 128 327.958857 128 439.922285 106.687883 409.759906 167.232623 431.21362C245.276431 452.677047 266.399205 531.01685 234.36739 594.474675L207.088853 651.411191 200.724452 614.820605 279.985182 693.147463 243.038708 687.358701 301.028568 658.000987C368.584742 630.944908 443.257988 651.05348 465.175917 726.937404L486.28278 789.832116 455.941155 768 567.999428 768 537.84493 789.289902 559.353464 728.732188C570.667468 697.062308 594.800244 671.689295 625.790367 658.834995 656.859162 645.981782 691.883117 646.869477 722.268493 661.252801L780.30905 688.851711 743.937325 695.125864 823.138637 615.907579 816.867046 652.269652 789.298099 594.267366C774.854374 563.912815 773.988845 528.873004 786.834438 497.727963 799.688442 466.725124 825.081901 442.626508 856.660941 431.310976L917.285824 409.769235 917.285824 409.769235ZM512 256C441.279704 256 384 313.266516 384 384 384 454.700221 441.299779 512 512 512 582.666957 512 640 454.680156 640 384 640 313.286577 582.687036 256 512 256L512 256ZM512 192C618.026664 192 704 277.933754 704 384 704 490.029679 618.009884 576 512 576 405.953555 576 320 490.046445 320 384 320 277.916992 405.93678 192 512 192L512 192Z"  horiz-adv-x="1024" />

    
    <glyph glyph-name="shanchu2" unicode="&#59014;" d="M960.064 768 800 768c0 70.688-25.312 128-96 128L320 896C249.312 896 224 838.688 224 768L63.936 768C46.304 768 32 753.792 32 736c0-17.664 14.208-32 32-32 17.664 0 32-14.304 32-32.032L96-64c0-35.36 28.704-64 64.192-64l703.616 0C899.264-128 928-99.52 928-64L928 671.968C928 689.664 942.208 704 960 704c17.664 0 32 14.208 32 32C992 753.664 977.696 768 960.064 768zM320 832l384 0c35.328 0 32-28.64 32-64L288 768C288 803.36 284.672 832 320 832zM864-31.744C864-49.568 849.408-64 832.16-64L191.84-64C174.272-64 160-49.632 160-31.744L160 671.904C160 689.952 174.368 704 192.096 704l639.84 0C849.952 704 864 689.632 864 671.904L864-31.744zM320 576c-17.664 0-32-14.592-32-31.84l0-448.288C288 78.272 302.208 64 320 64c17.664 0 32 14.592 32 31.84L352 544.16C352 561.728 337.792 576 320 576zM512 576c-17.664 0-32-14.592-32-31.84l0-448.288C480 78.272 494.208 64 512 64c17.664 0 32 14.592 32 31.84L544 544.16C544 561.728 529.792 576 512 576zM704 576c-17.664 0-32-14.592-32-31.84l0-448.288C672 78.272 686.208 64 704 64c17.664 0 32 14.592 32 31.84L736 544.16C736 561.728 721.792 576 704 576z"  horiz-adv-x="1024" />

    
    <glyph glyph-name="upload" unicode="&#58911;" d="M169.536 528.064c0-51.57 41.806-93.376 93.376-93.376s93.376 41.806 93.376 93.376c0 0 0 0 0 0 0 51.57-41.806 93.376-93.376 93.376-51.57 0-93.376-41.806-93.376-93.376zM811.008 406.656l-97.28 97.28-298.368-298.304-104.192 104.256-209.792-209.792v546.688c0 20.224 16.384 36.608 36.608 36.608h508.736v37.312h-508.032c-41.216 0-74.688-33.408-74.688-74.688v-634.944c0-41.28 33.472-74.688 74.688-74.688h634.944c41.28 0 74.688 33.472 74.688 74.688l0 503.296h-37.376l-0-107.712zM137.984-26.304c-20.224 0-36.608 16.384-36.608 36.608v36.928l209.792 209.792 283.328-283.328h-456.512zM811.008 10.304c0-20.224-16.384-36.608-36.608-36.608h-127.104l-205.44 205.504 271.936 271.936 97.28-97.28 0-343.552zM941.44 718.4h-94.656l-0 94.656c0 10.24-8.32 18.56-18.56 18.56s-18.56-8.32-18.56-18.56v-94.656h-94.656c-10.24 0-18.56-8.32-18.56-18.56s8.32-18.56 18.56-18.56h94.656v-94.656c0-10.24 8.32-18.56 18.56-18.56s18.56 8.32 18.56 18.56l0 94.592h94.656c10.24 0 18.56 8.32 18.56 18.56 0 10.304-8.32 18.624-18.56 18.624z"  horiz-adv-x="1024" />

    
    <glyph glyph-name="zhuijia" unicode="&#58902;" d="M893.5936 470.929408c-16.381952 0-29.664256-13.28128-29.664256-29.667328l0-360.374272c0-20.71552-16.856064-37.569536-37.573632-37.569536L198.276096 43.318272c-20.718592 0-37.572608 16.854016-37.572608 37.569536L160.703488 684.090368c0 20.714496 16.852992 37.568512 37.572608 37.568512l115.6608 0c3.085312 0 6.063104 0.47104 8.860672 1.348608l203.761664 0c16.379904 0 29.664256 13.282304 29.664256 29.664256 0 16.382976-13.282304 29.664256-29.664256 29.664256L198.276096 782.336C144.845824 782.336 101.376 738.866176 101.376 685.435904l0-1.345536 0-603.20256 0-1.347584c0-53.430272 43.469824-96.900096 96.900096-96.900096l306.796544 0c3.085312 0 6.06208 0.47616 8.860672 1.349632l312.42752 0c53.430272 0 96.902144 43.46368 96.902144 96.900096L923.262976 441.261056C923.257856 457.648128 909.981696 470.929408 893.5936 470.929408L893.5936 470.929408M893.5936 470.929408 893.5936 470.929408zM539.163648 600.910848c0.008192-16.376832 13.2864-29.64992 29.662208-29.64992l0.014336 0 121.257984 0.047104 0.04608-121.25696c0.008192-16.376832 13.288448-29.654016 29.664256-29.654016l0.014336 0c16.381952 0.009216 29.66016 13.295616 29.64992 29.678592l-0.04608 121.25696 121.255936 0.04608c16.381952 0.009216 29.66016 13.290496 29.654016 29.678592-0.01024 16.376832-13.29152 29.64992-29.668352 29.64992l-0.01024 0-121.255936-0.047104-0.052224 121.255936c-0.006144 16.377856-13.288448 29.656064-29.664256 29.656064l-0.014336 0c-16.381952-0.01024-29.66016-13.29664-29.64992-29.678592l0.04608-121.25696-121.25184-0.04608C552.429568 630.5792 539.152384 617.296896 539.163648 600.910848L539.163648 600.910848M539.163648 600.910848 539.163648 600.910848z"  horiz-adv-x="1024" />

    
    <glyph glyph-name="shangcheng" unicode="&#59291;" d="M866.132546 628.280722 766.002634 628.280722C720.228869 745.984518 624.185986 830.992883 513.021356 830.992883s-209.251128-85.008364-255.024893-202.711961L159.909965 628.280922c-26.156466 0-45.773765-19.617299-45.773765-45.773566l0-601.596917c0-26.156466 19.617299-45.773566 45.773765-45.773566l706.222581 0c26.156466 0 45.773566 13.078133 45.773566 39.234599l0 601.596917C911.906312 602.124456 892.289012 628.280722 866.132546 628.280722zM356.08296 700.210953c45.773765 52.312732 98.086497 85.008164 156.938396 85.008164s111.16463-26.156466 156.938396-78.469198c19.617299-26.156466 30.652018-52.312732 43.730151-78.469198l-403.380508 0C323.387527 654.437188 336.46566 680.593654 356.08296 700.210953zM166.040409-11.324626 166.040409 575.96799l78.877921 0c0-6.539166-6.539166-19.617299-6.539166-26.156466-13.078133-6.539166-26.156466-26.156466-26.156466-45.773765 0-32.695432 26.156466-52.312732 52.312732-52.312732 32.695432 0 52.312732 26.156466 52.312732 52.312732 0 19.617299-13.078133 39.234599-32.695432 45.773765 0 6.539166 1.839153 17.165162 6.539166 26.156466l437.915293 0.408723c1.634692-6.539166 6.334705-20.026022 6.334705-26.564989l0 0c-19.617299-6.539166-26.156466-26.156466-26.156466-45.773765 0-32.695432 26.156466-52.312732 52.312732-52.312732 32.695432 0 53.743162 26.156466 52.312732 52.312732-1.43043 25.33902-9.604288 41.686736-32.695432 45.773765 0 6.539166-3.678106 17.573885-4.700013 26.156466l81.125797 0 0-587.292616L166.040409-11.324626z"  horiz-adv-x="1024" />

    
    <glyph glyph-name="shoujihaoma" unicode="&#59635;" d="M420.378791 698.396503l182.629457 0c10.756995 0 19.455097 8.527211 19.455097 19.026332 0 10.512425-8.696056 19.028379-19.455097 19.028379l-182.629457 0c-10.745738 0-19.454074-8.515954-19.454074-19.028379C400.924717 706.924737 409.634076 698.396503 420.378791 698.396503L420.378791 698.396503M468.935694 72.25386c0 23.130813 19.141966 41.868573 42.764989 41.868573 23.619954 0 42.764989-18.738783 42.764989-41.868573 0-23.081695-19.142989-41.819454-42.764989-41.819454C488.077659 30.434405 468.935694 49.173189 468.935694 72.25386L468.935694 72.25386M806.650275 831.995267 216.760301 831.995267c-71.603805 0-129.643686-56.783261-129.643686-126.830617L87.116615 63.762465c0-70.041216 58.039881-126.83471 129.643686-126.83471l589.889975 0c71.583338 0 129.634476 56.793494 129.634476 126.83471L936.284751 705.16465C936.284751 775.212006 878.233614 831.995267 806.650275 831.995267L806.650275 831.995267M897.374556 63.757349c0-48.947805-40.697911-88.774883-90.724281-88.774883L216.760301-25.017534c-50.04786 0-90.746794 39.827077-90.746794 88.774883L126.013507 705.16465c0 48.960085 40.700981 88.773859 90.746794 88.773859l589.889975 0c50.02637 0 90.724281-39.814798 90.724281-88.773859L897.374556 63.757349 897.374556 63.757349M165.403632 209.332888c-10.512425 0-19.040658-8.697079-19.040658-19.455097 0-10.739599 8.528234-19.459191 19.040658-19.459191l692.594101 0c10.510378 0 19.027355 8.719592 19.027355 19.459191 0 10.758018-8.518001 19.455097-19.027355 19.455097L165.403632 209.332888 165.403632 209.332888M165.403632 209.332888 165.403632 209.332888z"  horiz-adv-x="1024" />

    
    <glyph glyph-name="caiwu" unicode="&#58956;" d="M896 642.496v29.696C896 760.32 824.256 832 736 832H224.576C136 832 64 760.32 64 672.192v-576.384C64 7.68 131.584-64 214.656-64H809.28C892.352-64 960 7.68 960 95.808V512.192c0 53.824-25.408 101.312-64 130.304z m0-546.688c0-52.8-38.848-95.808-86.656-95.808H214.656C166.848 0 128 43.008 128 95.808V672.192c0 52.8 43.328 95.808 96.576 95.808H736c52.928 0 96-43.008 96-95.808v-2.624c-7.488 1.216-14.912 2.432-22.656 2.432H288c-17.664 0-32-14.336-32-32s14.336-32 32-32h521.344C857.152 608 896 564.992 896 512.192v-416.384zM672 256c17.664 0 32 14.336 32 32s-14.336 32-32 32H544v23.488c9.856 3.52 19.264 8.512 27.84 15.36l120.128 96.128c13.824 11.072 16 31.168 4.992 44.992-10.944 13.76-31.04 15.872-44.992 4.992L531.84 408.896c-11.52-9.28-28.16-9.28-39.68 0l-120.128 96.128c-13.76 10.944-33.92 8.768-44.992-4.992-11.008-13.824-8.768-33.92 4.992-44.992l120.128-96.128c8.576-6.912 17.984-11.904 27.84-15.424V320H352c-17.664 0-32-14.336-32-32s14.336-32 32-32h128v-64H352c-17.664 0-32-14.336-32-32s14.336-32 32-32h128v-32c0-17.664 14.336-32 32-32s32 14.336 32 32v32h128c17.664 0 32 14.336 32 32s-14.336 32-32 32H544v64h128z"  horiz-adv-x="1024" />

    
    <glyph glyph-name="guquanchoujiang" unicode="&#58972;" d="M942.154 37.481l-113.17 167.647c62.63 73.015 100.485 167.902 100.485 271.64C929.469 707.328 742.556 894.236 512 894.236S94.537 707.328 94.537 476.768c0-103.736 37.853-198.623 100.482-271.638L81.845 37.481c-7.002-10.37-4.521-24.423 5.592-31.752l35.137-25.512c5.123-3.732 11.571-5.124 17.79-4.034l66.494 12.126 11.873-69.784a23.275 23.275 0 0 1 9.231-14.865l35.137-25.537a23.578 23.578 0 0 1 13.635-4.36c1.348 0 2.691 0.117 4.014 0.37 6.19 1.09 11.688 4.636 15.193 9.858l125.077 185.284a418.812 418.812 0 0 1 90.983-9.973c31.259 0 61.706 3.463 91.004 9.977l125.081-185.289c3.503-5.222 9.001-8.768 15.191-9.858 1.324-0.253 2.667-0.37 4.015-0.37 4.846 0 9.624 1.527 13.614 4.36l35.134 25.537a23.267 23.267 0 0 1 9.231 14.865l11.878 69.784 66.494-12.126c6.214-1.09 12.661 0.302 17.785 4.034l35.137 25.512c10.109 7.329 12.592 21.382 5.589 31.753zM270.938-70.18l-8.072 5.868-14.218 83.607a23.136 23.136 0 0 1-9.552 15.099 23.282 23.282 0 0 1-17.465 3.806L141.8 23.612l-8.973 6.491 95.064 140.832c41.702-38.758 91.336-69.085 146.205-88.284L270.938-70.18zM512 105.686c-204.927 0-371.081 166.131-371.081 371.082C140.919 681.699 307.05 847.849 512 847.849c204.956 0 371.082-166.126 371.082-371.081 0-204.951-166.15-371.082-371.082-371.082z m370.201-82.074L802.373 38.2a23.27 23.27 0 0 1-17.463-3.806 23.124 23.124 0 0 1-9.557-15.099l-14.218-83.607-8.068-5.868-103.163 152.832c54.87 19.199 104.503 49.525 146.206 88.282l95.069-140.83-8.978-6.492zM367.5 685.488c-17.5 0-29 0.5-44 2.5 2.5-15.5 3-33.5 3-85.5 0-122-4-197-13-247-5.5-31.5-13.5-53.5-29-78 10.5-7.5 16.5-13.5 25.5-25 25.5 42 35 80.5 42 169.5h67.5v-120c0-13-2.5-15-17.5-15-10 0-23.5 2-37.5 5 4.5-12 6.5-20.5 6.5-32 16-1.5 25.5-2 37.5-2 30.5 0 40 9.5 40 40.5v339c0 25 0.5 38.5 2 50.5-12-2-22-2.5-38.5-2.5h-44.5z m52-235h-66c0.5 12 1 17.5 1 52.5 0.5 8 0.5 21 1 37h64v-89.5z m0 118h-64l0.5 16v72.5h63.5v-88.5z m276.5-112.5c4.5 9 6 12 10.5 19.5l-18 20.5c-9.5-1.5-20-2-38.5-2H517.5c-19 0-31.5 0.5-45.5 2.5v-32.5c13.5 1.5 27 2.5 39.5 2.5 17.5-38.5 20-43 31.5-62 12-19 22.5-32.5 39-50-39.5-35-73-55-124.5-74 11.5-10.5 16.5-18 21.5-29 56.5 27 80.5 42.5 124.5 81.5 38-35 75.5-57.5 128.5-79 5.5 12.5 10 19.5 19.5 31-51 16-88 36.5-126.5 69.5 28.5 29.5 52.5 64 71 101.5z m-153.5 10.5h124c-18.5-38.5-33-59.5-63-91.5-27.5 28-40 47-61 91.5z m-57.5 40.5c22 15.5 35 31 46.5 55.5 12.5 26.5 18.5 56 19 97h82v-99c0-25.5 11-31 61-31 15 0 26 0.5 46.5 2.5l1.5 31c-11.5-3-28-4.5-45.5-4.5-26 0-33.5 2.5-33.5 11.5v71.5c0 21 0.5 34 2 47.5-12.5-1.5-23.5-2-42.5-2h-63.5c-13 0-25.5 0.5-40.5 2 1.5-11 2.5-20 2.5-31 0-29.5-4.5-55.5-12.5-74-10.5-24.5-24.5-40-51-54.5 12-6 18.5-11 28-22.5z"  horiz-adv-x="1024" />

    
    <glyph glyph-name="weixin" unicode="&#58880;" d="M270.496 551.497c0-20.819 16.877-37.697 37.697-37.697s37.697 16.877 37.697 37.697c0 0 0 0 0 0 0 20.819-16.877 37.697-37.697 37.697-20.819 0-37.697-16.877-37.697-37.697 0-0 0-0 0-0zM564.093 356.558c0-16.298 13.212-29.51 29.51-29.51s29.51 13.212 29.51 29.51c0 16.298-13.212 29.51-29.51 29.51-16.298 0-29.51-13.212-29.51-29.51zM462.786 551.497c0-20.819 16.877-37.697 37.697-37.697s37.697 16.877 37.697 37.697c0 0 0 0 0 0 0 20.819-16.877 37.697-37.697 37.697-20.819 0-37.697-16.877-37.697-37.697 0-0 0-0 0-0zM813.979 834.391h-604.984c-80.099 0-145.035-65.148-145.035-145.512l0-604.231c0-80.364 64.936-145.512 145.035-145.512h604.984c80.1 0 145.035 65.148 145.035 145.512v604.23c0.001 80.365-64.934 145.513-145.035 145.513zM399.842 234.599c-33.871 0-61.109 6.919-95.052 13.624l-94.859-47.563 27.138 81.628c-67.935 47.481-108.585 108.656-108.585 183.207 0 129.113 122.189 230.775 271.358 230.775 133.428 0 250.314-81.236 273.796-190.57-8.634 0.965-17.335 1.594-26.129 1.594-128.901 0-230.705-96.199-230.705-214.751 0-19.731 3.071-38.733 8.374-56.861-8.374-0.659-16.819-1.083-25.335-1.083zM800.124 139.546l20.411-67.816-74.436 40.771c-27.139-6.803-54.399-13.626-81.422-13.626-129.108 0-230.798 88.248-230.798 196.924 0 108.495 101.689 196.929 230.798 196.929 121.937 0 230.497-88.434 230.497-196.929 0-61.2-40.581-115.39-95.049-156.253zM711.961 356.558c0-16.298 13.212-29.51 29.51-29.51s29.51 13.212 29.51 29.51c0 16.298-13.212 29.51-29.51 29.51-16.298 0-29.51-13.212-29.51-29.51z"  horiz-adv-x="1024" />

    
    <glyph glyph-name="peitu" unicode="&#58891;" d="M894.916575 54.015474h-82.950224V452.068282L514.543428 667.219433 217.118458 452.068282v-398.052808h-82.950224V494.431112l380.37417 275.122011 380.373147-275.122011v-440.415638zM271.998369 205.997933h181.0331v-151.982459h-181.0331V205.997933zM271.998369 381.518482h181.0331v-151.888315h-181.0331V381.518482zM487.593636 205.997933h181.031052v-151.982459H487.593636V205.997933z"  horiz-adv-x="1024" />

    
    <glyph glyph-name="feedback" unicode="&#58883;" d="M937.393 743.456l30.565-30.565-537.156-537.134-97.596-10.818v-13.544h-24.469v24.362h13.587l10.882 97.661 537.091 537.177 67.096-67.139zM967.958 896l-61.065-48.852 97.704-97.596 48.787 61.043-85.426 85.405zM817.947-128h-635.46c-100.601 0-182.486 81.885-182.486 182.486v635.46c0 100.601 81.885 182.486 182.486 182.486h545.677c17.922 0 32.475-14.531 32.475-32.453s-14.553-32.453-32.475-32.453l-545.677 0c-64.842 0-117.601-52.737-117.601-117.601v-635.46c0-64.842 52.737-117.579 117.601-117.579h635.46c64.842 0 117.601 52.737 117.601 117.579v538.1c0 17.922 14.531 32.453 32.453 32.453s32.453-14.531 32.453-32.453v-538.057c-0.021-100.623-81.885-182.508-182.508-182.508z"  horiz-adv-x="1054" />

    
    <glyph glyph-name="app" unicode="&#58944;" d="M735.829333 831.402667H288.512c-41.216 0-74.581333-34.048-74.581333-76.117334v-742.656c0-42.069333 33.365333-76.202667 74.581333-76.202666h447.317333c41.130667 0 74.581333 34.133333 74.581334 76.202666V755.285333a75.349333 75.349333 0 0 1-74.581334 76.117334zM512.170667 128a56.064 56.064 0 0 1-55.466667-56.746667c0-31.402667 24.832-56.832 55.466667-56.832a56.064 56.064 0 0 1 55.381333 56.832A56.064 56.064 0 0 1 512 128z m64.256 597.333333C587.946667 725.333333 597.333333 715.264 597.333333 703.658667c0-11.946667-9.216-21.674667-20.906666-21.674667h-128.853334A21.504 21.504 0 0 0 426.666667 703.658667c0 11.946667 9.216 21.674667 20.906666 21.674666h128.853334z m-272.298667 47.189334H720.213333c19.285333 0 34.986667-15.957333 34.986667-35.584V212.48H269.141333V736.938667c0 19.626667 15.701333 35.584 34.986667 35.584z m416.085333-791.893334H304.128a35.328 35.328 0 0 0-34.986667 35.584V147.2H755.2v-130.986667c0-19.626667-15.701333-35.584-34.986667-35.584z"  horiz-adv-x="1024" />

    
    <glyph glyph-name="shipinbofang" unicode="&#59004;" d="M981.882 583.297c-25.665 60.68-62.403 115.171-109.193 161.96S771.406 828.784 710.726 854.449C647.892 881.025 581.157 894.5 512.376 894.5c-68.779 0-135.513-13.475-198.347-40.051-60.681-25.665-115.172-62.402-161.962-109.191-46.791-46.79-83.529-101.281-109.195-161.96-26.578-62.836-40.053-129.57-40.053-198.352 0-68.78 13.476-135.515 40.053-198.35 25.666-60.68 62.404-115.172 109.194-161.962 46.791-46.79 101.282-83.528 161.962-109.193 62.834-26.577 129.568-40.053 198.348-40.053s135.514 13.476 198.349 40.053c60.681 25.665 115.173 62.403 161.963 109.193s83.528 101.282 109.193 161.963c26.577 62.834 40.053 129.568 40.053 198.349 0.001 68.782-13.475 135.516-40.052 198.351z m-39.603-379.949c-23.498-55.555-57.142-105.452-99.997-148.308-42.854-42.854-92.752-76.498-148.308-99.996-57.505-24.322-118.604-36.655-181.598-36.655-62.993 0-124.091 12.333-181.597 36.655-55.555 23.498-105.453 57.142-148.308 99.996-42.855 42.855-76.499 92.753-99.997 148.309-24.323 57.505-36.656 118.604-36.656 181.598 0 62.995 12.333 124.094 36.656 181.599 23.498 55.555 57.142 105.452 99.997 148.306 42.854 42.854 92.752 76.497 148.307 99.994C388.285 839.167 449.383 851.5 512.376 851.5c62.995 0 124.093-12.333 181.599-36.655 55.555-23.497 105.452-57.14 148.308-99.994 42.854-42.854 76.498-92.751 99.996-148.306 24.322-57.505 36.655-118.604 36.655-181.6 0.001-62.993-12.332-124.091-36.655-181.597zM389.072 170.59l301.5 198.524-301.5 232.193z"  horiz-adv-x="1024" />

    
    <glyph glyph-name="neirong" unicode="&#59536;" d="M170.666667 768c-23.509333 0-42.666667-19.178667-42.666667-42.666667v-682.666666c0-23.509333 19.178667-42.666667 42.666667-42.666667h682.666666c23.509333 0 42.666667 19.178667 42.666667 42.666667V725.333333c0 23.509333-19.178667 42.666667-42.666667 42.666667H170.666667z m682.666666 42.666667c47.018667 0 85.333333-38.186667 85.333334-85.333334v-682.666666c0-47.018667-38.186667-85.333333-85.333334-85.333334H170.666667c-47.018667 0-85.333333 38.186667-85.333334 85.333334V725.333333c0 47.018667 38.186667 85.333333 85.333334 85.333334h682.666666zM597.333333 384a85.333333 85.333333 0 1 1-170.666666 0 85.333333 85.333333 0 0 1 170.666666 0z m-39.786666-119.658667a128 128 0 0 0-166.549334 161.493334l-134.677333 213.333333 212.458667-134.656a128 128 0 0 0 164.010666-162.986667l134.869334-212.949333-210.112 135.765333z"  horiz-adv-x="1024" />

    
    <glyph glyph-name="simuguquan" unicode="&#58892;" d="M325.632 201.984h-13.056c-2.816 0-4.864 2.304-4.864 4.864v82.688c0 2.816 2.304 4.864 4.864 4.864h13.056c2.816 0 4.864-2.304 4.864-4.864v-82.688c0-2.816-2.048-4.864-4.864-4.864zM424.192 242.944h-13.056c-2.816 0-4.864 2.304-4.864 4.864v43.52c0 2.816 2.304 4.864 4.864 4.864h13.056c2.816 0 4.864-2.304 4.864-4.864v-43.52c0.256-2.56-2.048-4.864-4.864-4.864zM522.496 220.16H509.44c-2.816 0-4.864 2.304-4.864 4.864v64.512c0 2.816 2.304 4.864 4.864 4.864h13.056c2.816 0 4.864-2.304 4.864-4.864v-64.512c0-2.816-2.304-4.864-4.864-4.864zM715.008 201.984h-13.056c-2.816 0-4.864 2.304-4.864 4.864v82.688c0 2.816 2.304 4.864 4.864 4.864h13.056c2.816 0 4.864-2.304 4.864-4.864v-82.688c0-2.816-2.048-4.864-4.864-4.864zM621.056 248.064h-13.056c-2.816 0-4.864 2.304-4.864 4.864V289.28c0 2.816 2.304 4.864 4.864 4.864h13.056c2.816 0 4.864-2.304 4.864-4.864v-36.352c0-2.56-2.048-4.864-4.864-4.864zM354.56 341.248l-10.496 10.496c-2.048 2.048-2.048 5.12 0 7.168l107.264 107.264c2.048 2.048 5.12 2.048 7.168 0l10.496-10.496c2.048-2.048 2.048-5.12 0-7.168l-107.264-107.264c-2.048-1.792-5.376-1.792-7.168 0zM550.912 342.016l-15.36 13.568c-2.048 1.792-2.304 5.12-0.512 7.168l149.248 166.912c1.792 2.048 5.12 2.304 7.168 0.512l15.36-13.568c2.048-1.792 2.304-5.12 0.512-7.168L558.08 342.272c-2.048-2.048-5.12-2.048-7.168-0.256zM564.48 349.44l-11.52-11.264c-2.048-2.048-5.12-1.792-7.168 0L448 439.296c-2.048 2.048-1.792 5.12 0 7.168l11.52 11.264c2.048 2.048 5.12 1.792 7.168 0l97.792-100.864c2.048-2.304 2.048-5.376 0-7.424zM716.032 280.064h-404.48c-2.048 0-3.84 1.792-3.84 3.84v15.872c0 2.048 1.792 3.84 3.84 3.84h404.48c2.048 0 3.84-1.792 3.84-3.84v-15.872c0-2.048-1.536-3.84-3.84-3.84zM722.432 366.592l-18.432-0.512c-2.816 0-5.12 2.048-5.12 4.864l-3.84 170.496c0 2.816 2.048 5.12 4.864 5.12l18.432 0.512c2.816 0 5.12-2.048 5.12-4.864l3.84-170.496c0-2.816-2.048-5.12-4.864-5.12zM533.504 520.448l-0.256 17.152c0 2.816 2.048 5.12 4.864 5.12l167.424 3.84c2.816 0 5.12-2.048 5.12-4.864l0.256-17.152c0-2.816-2.048-5.12-4.864-5.12l-167.424-3.84c-2.816 0-5.12 2.048-5.12 4.864zM517.376-61.44c-240.64 0-436.224 196.096-436.224 436.992S276.736 812.544 517.376 812.544s436.224-196.096 436.224-436.992S758.016-61.44 517.376-61.44z m0 838.144c-220.672 0-400.384-179.968-400.384-401.152 0-221.184 179.712-401.152 400.384-401.152s400.384 179.968 400.384 401.152c0 221.184-179.456 401.152-400.384 401.152z"  horiz-adv-x="1024" />

    
    <glyph glyph-name="bangzhuzhongxin" unicode="&#58917;" d="M909.066667 588c-52.666667 0-102.133333-20.266667-139.333334-57.066667-37.2-36.8-57.733333-85.866667-57.733333-138 0-52.133333 20.533333-101.066667 57.733333-138 37.2-36.8 86.666667-57.066667 139.333334-57.066666s102.133333 20.266667 139.333333 57.066666c37.2 36.8 57.733333 85.866667 57.733333 138 0 52.133333-20.533333 101.066667-57.733333 138-37.2 36.8-86.666667 57.066667-139.333333 57.066667z m0-349.066667c-85.733333 0-155.466667 69.066667-155.466667 153.866667s69.733333 154 155.466667 154 155.466667-69.066667 155.466666-154-69.733333-153.866667-155.466666-153.866667z m2.4 399.466667c11.466667 0 20.8 9.2 20.8 20.533333v49.733334c0 11.333333-9.333333 20.533333-20.8 20.533333S890.666667 720 890.666667 708.666667v-49.733334c0-11.333333 9.333333-20.533333 20.8-20.533333z m-174.666667-69.733333c5.333333 0 10.666667 2 14.666667 6 8.133333 8 8.133333 21.066667 0 29.066666l-35.6 35.2c-8.133333 8-21.333333 8-29.333334 0-8.133333-8-8.133333-21.066667 0-29.066666l35.6-35.2c4-4 9.333333-6 14.666667-6z m-73.733333-130.4h-50.266667c-11.466667 0-20.8-9.2-20.8-20.533334s9.333333-20.533333 20.8-20.533333h50.266667c11.466667 0 20.8 9.2 20.8 20.533333s-9.333333 20.533333-20.8 20.533334z m542.4-4.533334h-50.266667c-11.466667 0-20.8-9.2-20.8-20.533333s9.333333-20.533333 20.8-20.533333h50.266667c11.466667 0 20.8 9.2 20.8 20.533333s-9.333333 20.533333-20.8 20.533333z m-120.8 131.733334c5.333333 0 10.666667 2 14.666666 6l35.6 35.2c8.133333 8 8.133333 21.066667 0 29.066666s-21.333333 8-29.466666 0l-35.6-35.2c-8.133333-8-8.133333-21.066667 0-29.066666 4.266667-4 9.466667-6 14.8-6z m-98.8-408.666667H832.4c-11.466667 0-20.8-9.2-20.8-20.533333s9.333333-20.533333 20.8-20.533334h153.466667c11.466667 0 20.8 9.2 20.8 20.533334s-9.333333 20.533333-20.8 20.533333zM958 78.666667h-97.866667c-11.466667 0-20.8-9.2-20.8-20.533334s9.333333-20.533333 20.8-20.533333h97.866667c11.466667 0 20.8 9.2 20.8 20.533333 0 11.2-9.2 20.533333-20.8 20.533334zM909.066667 588c-52.666667 0-102.133333-20.266667-139.333334-57.066667-37.2-36.8-57.733333-85.866667-57.733333-138 0-52.133333 20.533333-101.066667 57.733333-138 37.2-36.8 86.666667-57.066667 139.333334-57.066666s102.133333 20.266667 139.333333 57.066666c37.2 36.8 57.733333 85.866667 57.733333 138 0 52.133333-20.533333 101.066667-57.733333 138-37.2 36.8-86.666667 57.066667-139.333333 57.066667z m0-349.066667c-85.733333 0-155.466667 69.066667-155.466667 153.866667s69.733333 154 155.466667 154 155.466667-69.066667 155.466666-154-69.733333-153.866667-155.466666-153.866667z m2.4 399.466667c11.466667 0 20.8 9.2 20.8 20.533333v49.733334c0 11.333333-9.333333 20.533333-20.8 20.533333S890.666667 720 890.666667 708.666667v-49.733334c0-11.333333 9.333333-20.533333 20.8-20.533333z m-174.666667-69.733333c5.333333 0 10.666667 2 14.666667 6 8.133333 8 8.133333 21.066667 0 29.066666l-35.6 35.2c-8.133333 8-21.333333 8-29.333334 0-8.133333-8-8.133333-21.066667 0-29.066666l35.6-35.2c4-4 9.333333-6 14.666667-6z m-73.733333-130.4h-50.266667c-11.466667 0-20.8-9.2-20.8-20.533334s9.333333-20.533333 20.8-20.533333h50.266667c11.466667 0 20.8 9.2 20.8 20.533333s-9.333333 20.533333-20.8 20.533334z m542.4-4.533334h-50.266667c-11.466667 0-20.8-9.2-20.8-20.533333s9.333333-20.533333 20.8-20.533333h50.266667c11.466667 0 20.8 9.2 20.8 20.533333s-9.333333 20.533333-20.8 20.533333z m-120.8 131.733334c5.333333 0 10.666667 2 14.666666 6l35.6 35.2c8.133333 8 8.133333 21.066667 0 29.066666s-21.333333 8-29.466666 0l-35.6-35.2c-8.133333-8-8.133333-21.066667 0-29.066666 4.266667-4 9.466667-6 14.8-6z m-98.8-408.666667H832.4c-11.466667 0-20.8-9.2-20.8-20.533333s9.333333-20.533333 20.8-20.533334h153.466667c11.466667 0 20.8 9.2 20.8 20.533334s-9.333333 20.533333-20.8 20.533333zM958 78.666667h-97.866667c-11.466667 0-20.8-9.2-20.8-20.533334s9.333333-20.533333 20.8-20.533333h97.866667c11.466667 0 20.8 9.2 20.8 20.533333 0 11.2-9.2 20.533333-20.8 20.533334z"  horiz-adv-x="1821" />

    
    <glyph glyph-name="search" unicode="&#58910;" d="M445.844 64.441c-49.686 0-97.898 9.737-143.299 28.939-43.838 18.542-83.205 45.083-117.005 78.882-33.8 33.8-60.339 73.165-78.882 117.005-19.203 45.4-28.939 93.613-28.939 143.299s9.737 97.898 28.939 143.299c18.542 43.838 45.082 83.205 78.882 117.005s73.166 60.339 117.005 78.882c45.401 19.203 93.613 28.939 143.299 28.939s97.898-9.737 143.299-28.939c43.839-18.542 83.205-45.082 117.005-78.882 33.799-33.8 60.339-73.166 78.882-117.005 19.203-45.401 28.939-93.613 28.939-143.299 0-49.685-9.737-97.898-28.939-143.299-18.542-43.839-45.083-83.205-78.882-117.005-33.8-33.799-73.165-60.339-117.005-78.882-45.4-19.202-93.613-28.939-143.299-28.939zM445.844 749.523c-84.662 0-164.258-32.97-224.124-92.835s-92.834-139.46-92.834-224.122c0-84.663 32.97-164.258 92.835-224.124s139.461-92.835 224.124-92.835c84.663 0 164.258 32.97 224.123 92.835s92.835 139.46 92.835 224.123c0 84.662-32.97 164.258-92.835 224.123s-139.461 92.834-224.125 92.834zM879.597 9c-0.010-0-0.022-0-0.034-0-7.054 0-13.439 2.864-18.055 7.492l-91.212 91.212c-9.991 9.992-9.991 26.189 0 36.179 9.992 9.992 26.188 9.992 36.179 0l91.211-91.211c9.991-9.991 9.991-26.188 0-36.179-4.617-4.629-11.002-7.493-18.056-7.493-0.012 0-0.023 0-0.035 0z"  horiz-adv-x="1024" />

    
    <glyph glyph-name="vr" unicode="&#58938;" d="M319.2 166.2l1-0.9v-1l1-1 1.9-5 2.1-1.9h8l201.1 389.4h335.5l-100.1-193.4h-291.3c-1.2-1.7-1.9-1.7-1.9-4v-1.9c0-5.7 35.5-41.6 41.2-48.9 11.1-14.4 29.9-35.1 43-48 11.8-11.8 79-93.4 87.8-93.4h61.1c3.5 0 7.1 1.7 7.1 5v1.9c0 8.3-100.2 109.4-112.2 127.1h168.2c16.4 0 28.7-3.7 34.3 7.7 4.7 9.4 9.7 18.3 14.4 27.8 9.2 18.6 19.8 36.4 29 55 11.3 22.8 114.5 218.5 114.5 221.9 0 4.2-5.6 6.1-10.1 6.1h-446.3c-11.1 0-11-9-15.3-15.8l-163.4-315.3-1.6-0.3-2.4 5.4-0.5 1.7c-14.3 26.8-28.4 53.7-42.1 81.1-6.4 13-13.9 28-21.2 40.9-7.7 13.4-13.2 27.3-21.4 40.7-7.7 12.3-13 28.5-20.9 41.2-7.3 12.2-14.6 27.7-21.2 40.7-4.9 9.9-38.6 79.8-44.4 79.8h-59.1c-12.5 0-14.4-16.9-19.7-25.2-5.6-9-10.6-21-15.3-30.8 1.9-3.8 1.7-7.1 8-7.1h56l195.2-379.5z"  horiz-adv-x="1024" />

    
    <glyph glyph-name="dianyingren" unicode="&#58900;" d="M962.677764-67.772277h30.329396c16.34105 0 29.566141-13.496826 29.566141-30.124596 0-16.626771-13.224092-30.093626-29.566141-30.093626H874.74959c-5.312814 0-10.236009 1.556481-14.566782 4.041055-12.097192-2.453605-24.541046-3.925169-37.317575-4.041055-110.17446-1.073952-200.357434 89.006123-201.425392 201.197614-1.053971 112.251433 87.394695 204.081799 197.585141 205.170736 110.20543 1.100925 200.385407-89.00912 201.455362-201.229583 0.534478-56.471879-21.625891-107.722853-57.80258-144.920545zM724.412331 112.903368c-24.440144-0.249756-44.087966-20.655838-43.856192-45.604486 0.229776-24.920675 20.252232-44.960115 44.707362-44.725344 24.440144 0.234771 44.087966 20.655838 43.856192 45.604486-0.230775 24.919676-20.253231 44.960115-44.707362 44.725344z m103.448027 105.296222c-24.570018-0.249756-44.289769-20.656837-44.030023-45.605485 0.230775-24.949647 20.32616-44.960115 44.896177-44.725344 24.570018 0.249756 44.289769 20.657836 44.030023 45.593497-0.244761 24.934662-20.340146 44.972103-44.896177 44.737332z m-29.117579-150.78582c0.145858-16.730669 13.468853-30.168553 29.752958-30.035683 16.255134 0.175828 29.319382 13.878453 29.175523 30.640093-0.17383 16.715684-13.48284 30.168553-29.752959 29.991725-16.26912-0.13287-29.333368-13.850481-29.175522-30.596135z m29.131565-59.791639c-24.554033-0.234771-44.273785-20.658835-44.044009-45.607483 0.230775-24.919676 20.32616-44.958117 44.896177-44.708361 24.570018 0.234771 44.289769 20.656837 44.044009 45.591499-0.229776 24.933663-20.325161 44.959116-44.896177 44.724345z m103.463011 105.281237c-24.469116-0.249756-44.086967-20.640853-43.855193-45.5905 0.229776-24.935661 20.252232-44.960115 44.707361-44.710359 24.440144 0.234771 44.071982 20.655838 43.843206 45.575515-0.24576 24.951645-20.240244 44.960115-44.695374 44.725344z m-308.179191 205.889035c22.101427-1.411622 39.69925-19.90657 39.69925-42.798225l0.374635-3.998098c0-23.773795-18.911541-43.062967-42.282729-43.062967-11.620657 0-22.116413 4.792322-29.766945 12.510789-2.136914-2.851217-4.417688-5.585548-6.467687-8.511692-39.670278 17.33408-82.992992 27.655006-128.567507 29.094601-3.767323-0.146857-7.441736-0.572441-11.231038-0.572441-3.76033 0-7.434743 0.425585-11.173094 0.572441-176.313903-5.631503-319.967685-141.816575-341.029127-316.876702H91.61l0.049951-0.558455c0-24.949647-19.841633-45.163916-44.332728-45.163916-24.497089 0-44.354706 20.214269-44.354706 45.163916l-0.404605 4.188912c0 5.765373 1.155872 11.21805 3.089984 16.306084 0.063938 0.188816 0.115887 0.426584 0.186818 0.615399 13.527796 95.888405 56.308039 182.01334 119.227624 248.613332 0.07193 0.074927 0.115887 0.118884 0.187816 0.190814 7.433744 7.852335 15.24412 15.335032 23.220335 22.612928 2.309745 2.13092 4.51759 4.264837 6.871293 6.350801 7.05911 6.189958 14.355987 12.042246 21.790731 17.790635 3.530554 2.734331 7.016152 5.483647 10.611642 8.100094 6.900265 5.028092 13.981353 9.719513 21.177329 14.348994a409.767033 409.767033 0 0 0 14.052284 8.674533 426.286908 426.286908 0 0 0 20.022456 11.145121c5.789349 3.04303 11.671608 5.864276 17.619802 8.642564 3.088985 1.471564 6.264885 2.764302 9.368855 4.145953-82.119844 57.015348-136.102153 152.997661-136.102153 261.860403 0 174.972212 139.256074 316.76581 311.023415 316.76581 171.774334 0 311.023415-141.794597 311.023415-316.76581 0-107.351216-52.532724-202.106727-132.781394-259.385818zM444.851207 804.360448c-122.713222 0-222.178135-101.298125-222.178136-226.244167 0-124.953035 99.463915-226.273138 222.178136-226.273138 122.68425 0 222.148165 101.320103 222.148164 226.273138 0.000999 124.946042-99.463915 226.244167-222.148164 226.244167z"  horiz-adv-x="1024" />

    
    <glyph glyph-name="shujudaochu" unicode="&#58885;" d="M657.365-7.083l17.003 17.003-34.453 34.475-51.499-51.478-52.01-52.01V457.173h-48.769v-516.266l-52.032 52.01-51.498 51.478-34.496-34.475 17.045-17.003 120.896-120.896 0.107 0.107v-0.107h48.746v0.107l0.128-0.107 120.832 120.896zM738.88 700.8C698.688 814.443 590.635 896 463.232 896 301.675 896 170.667 764.992 170.667 603.435c0-10.838 0.682-21.504 1.834-32.022C73.26 545.216 0 455.125 0 347.67c0-127.914 103.68-231.616 231.616-231.616h109.717v48.811h-99.029v0.47c-3.563-0.171-7.083-0.47-10.667-0.47A182.87 182.87 0 0 0 48.768 347.712c0 83.776 56.405 154.219 133.248 175.872a182.4 182.4 0 0 0 48.576 6.955 240.875 240.875 0 0 0-9.877 48.256 242.424 242.424 0 0 0-1.28 24.704c0 134.656 109.184 243.818 243.818 243.818 101.227 0 188.032-61.738 224.896-149.61 6.294-14.998 11.072-30.763 14.272-47.104 9.494 1.152 19.179 1.898 28.992 1.898 6.784 0 13.462-0.49 20.118-1.024 125.205-10.24 223.68-114.901 223.68-242.773 0-130.325-102.379-236.523-231.083-243.157h-63.552v-49.451h68.053v0.81C902.187 125.867 1024 252.887 1024 408.62c0 159.061-127.04 288.213-285.12 292.181z"  horiz-adv-x="1024" />

    
    <glyph glyph-name="mima" unicode="&#59129;" d="M853.336742 408.384702H219.426526v170.670416c0 147.875843 144.68945 268.189794 292.569384 268.189795 147.881979 0 268.189794-144.687405 268.189794-292.569384 0-13.47468 10.916158-24.379589 24.379589-24.379589 13.476725 0 24.379589 10.910022 24.379589 24.379589 0 174.778164-142.18308 341.334697-316.948972 341.334697-174.76078 0-341.329584-142.176944-341.329584-316.955108v-170.670416c-53.791348 0-97.524491-43.733144-97.524491-97.519378v-341.340833c0-53.786235 43.733144-97.514265 97.524491-97.514265h682.66428c53.791348 0 97.526536 43.729053 97.526537 97.514265v341.340833c0 53.79237-43.739279 97.519378-97.520401 97.519378z m48.761223-438.859188c0-26.879824-21.886512-48.755087-48.761223-48.755088H170.667348c-26.883914 0-48.765313 21.875264-48.765313 48.755088v341.340832c0 26.883914 21.881399 48.759178 48.765313 48.759178h682.664281c26.879824 0 48.766336-21.875264 48.766336-48.759178v-341.340832zM511.99591 262.101033c-26.934021 0-48.759178-21.831292-48.759178-48.755088 0-18.047706 9.811759-33.798673 24.373453-42.225844v-79.679258c0-13.47059 10.916158-73.144902 24.385725-73.144903 13.47059 0 24.381634 59.674313 24.381634 73.144903v79.679258c14.56783 8.427171 24.385724 24.177116 24.385724 42.225844 0 26.923795-21.831292 48.755087-48.767358 48.755088z m0 0"  horiz-adv-x="1024" />

    
    <glyph glyph-name="gongneng" unicode="&#58904;" d="M939.456 217.792c-2.176 1.344-14.656-2.176-28.032-1.6-12.032 0.384-27.2 7.04-29.824 11.008-2.624 4.032-15.552 17.408-14.656 32.512 1.344 17.344 20.032 31.104 13.824 41.408-8.896 15.488-20.032 19.968-31.104 27.072-5.376 3.072-16 3.968-27.584-3.136-5.824-3.584-9.344-16.384-15.616-20.928a43.52 43.52 0 0 0-31.104-8c-3.584 0.512-15.104-1.344-23.104 9.344-11.136 14.656-9.792 43.584-31.104 44.48-16.512 0.896-40.064-4.864-46.656-19.136-4.032-8 0.896-20.48 0.448-30.272a45.44 45.44 0 0 0-14.656-28.864c-5.44-5.76-13.44-13.312-22.72-12.032-17.536 2.304-37.952 22.784-52.224 12.928-10.688-7.104-26.688-26.24-20.928-49.856 1.792-7.552 15.168-11.52 20.928-19.52a51.456 51.456 0 0 0 8-36.032c-0.896-4.416 0.448-14.272-8.96-21.888-14.528-11.904-25.216-3.904-35.904-17.28-9.856-12.352-4.48-24.896-4.032-37.824 0.896-10.624 10.24-22.656 16-24.384 7.552-2.24 21.312 3.52 32.896 2.56 14.272-1.344 26.24-9.664 28.928-15.104 3.136-6.592 11.648-15.936 11.072-23.552 0-14.656-16.96-22.656-16.448-36.864 0.576-13.824 17.024-31.104 37.376-38.272 20.928-7.104 28.032 32 59.2 33.792 8.896 0.448 24.448-0.96 29.312-4.928 16-12.864 7.552-39.552 29.44-46.336 23.04-7.488 47.936 9.856 51.52 14.72 4.032 5.312-18.688 39.488 19.2 64.064 2.688 1.728 11.52 12.416 23.552 10.624 17.728-2.176 32.512-20.416 44.48-13.312a52.672 52.672 0 0 1 25.792 48.96c0 1.728-14.72 11.136-23.168 23.104-8 11.584-9.728 24.96-8.448 30.656 1.792 4.864 2.24 22.208 10.688 26.688 15.104 8.064 38.272 10.688 39.552 27.584 0.512 11.2 0.96 17.344-2.688 27.2-3.52 11.072-4.352 15.488-12.864 20.352h-0.384v0.064z m-194.368-166.72a93.632 93.632 0 0 0-88.064 99.2 93.696 93.696 0 0 0 99.2 88.064 93.568 93.568 0 0 0 88.064-99.136 93.632 93.632 0 0 0-99.2-88.128z m-351.424 774.4H156.608a88.96 88.96 0 0 1-88.96-88.96v-237.056c0-48.96 40-88.96 88.96-88.96h237.056c48.96 0 88.96 40 88.96 88.96V736.512a88.96 88.96 0 0 1-88.96 88.96z m42.816-326.144c0-35.136-40.896-49.024-75.584-49.024H171.008c-35.072 0-65.28 13.888-65.28 49.024l0.448 247.872c0 35.136 46.144 40 81.216 40h179.648c35.2 0 73.472-3.648 73.472-38.784v-220.48l-4.032-28.608zM870.016 825.472H633.024A88.96 88.96 0 0 1 544 736.512v-237.056c0-48.96 40-88.96 89.024-88.96h236.992c49.024 0 89.024 40 89.024 88.96V736.512a89.024 89.024 0 0 1-89.024 88.96z m42.88-326.144c0-35.136-40.896-49.024-75.648-49.024h-189.888c-35.136 0-65.28 13.888-65.28 49.024l0.448 247.872c0 35.136 46.144 40 81.216 40h179.712c35.2 0 73.408-3.648 73.408-38.784v-220.48l-3.968-28.608zM390.912 359.424H153.92a88.96 88.96 0 0 1-89.024-88.96v-237.056c0-49.024 40-89.024 89.024-89.024h236.992c49.024 0 89.024 40 89.024 89.024V270.464a88.96 88.96 0 0 1-89.024 88.96z m42.88-326.144c0-35.136-40.896-49.024-75.648-49.024H168.256c-35.136 0-65.28 13.888-65.28 49.024l0.448 247.872c0 35.136 46.144 40 81.216 40h179.712c35.2 0 73.408-3.648 73.408-38.72v-220.48l-3.968-28.672z"  horiz-adv-x="1024" />

    
    <glyph glyph-name="gouwuche" unicode="&#58916;" d="M802.3 94.5c-40.6 0-73.5-32.9-73.5-73.5s32.9-73.5 73.5-73.5 73.5 32.9 73.5 73.5-32.9 73.5-73.5 73.5z m0-110.2c-20.3 0-36.7 16.4-36.7 36.7s16.4 36.7 36.7 36.7c20.3 0 36.7-16.4 36.7-36.7s-16.4-36.7-36.7-36.7zM416.6 94.5c-40.6 0-73.5-32.9-73.5-73.5s32.9-73.5 73.5-73.5 73.5 32.9 73.5 73.5-32.9 73.5-73.5 73.5z m0-110.2c-20.3 0-36.7 16.4-36.7 36.7s16.4 36.7 36.7 36.7 36.7-16.4 36.7-36.7-16.4-36.7-36.7-36.7z m490.7 309.9s41.9 240 41.9 241.1c0 40.6-32.9 73.5-73.5 73.5H258.8l-11 57.7c-9.1 30.3-36.8 52.5-70.1 52.5h-55.1c-10.1 0-18.4-8.2-18.4-18.4s8.2-18.4 18.4-18.4h55.1c17.6 0 32.3-12.4 35.9-28.9l80.8-458.5c0.3-2.6 2.1-10.2 2.1-10.2 8.3-29 33.8-51 64.8-53.4h514.3c10.1 0 18.4 8.2 18.4 18.4s-8.2 18.4-18.4 18.4H367c-16.7 0-30.6 11.2-35.1 26.5l-8.3 47h513.6c33.3 0 61.2 22.3 70.1 52.7z m-590.2-16l-51.8 293.9h610.5c20.3 0 36.7-16.4 36.7-36.7 0-6.7-40.4-231.3-40.4-231.3-4.7-15-18.4-25.9-34.9-25.9H317.1z"  horiz-adv-x="1024" />

    
    <glyph glyph-name="baodanzhongxin" unicode="&#58896;" d="M901.12 176.64h-122.368v122.368h-58.88v-122.368h-122.368V117.76h122.368v-122.368h58.88V117.76H901.12v58.88zM749.568-128c-153.6 0-274.944 121.344-274.944 274.944s121.856 274.944 274.944 274.944c153.6 0 274.93888-121.344 274.93888-274.944S903.168-128 749.568-128z m0 488.704c-115.6864 0-213.248-97.56672-213.248-213.248 0-115.68128 97.56672-213.24288 213.248-213.24288 115.68128 0 213.24288 97.56672 213.24288 213.24288 0.00512 121.72288-97.5616 213.248-213.24288 213.248zM166.912 271.36h224.256c12.8 0 25.6-16.88064 25.6-33.75616v-8.77568c0-16.88064-12.8-33.75616-25.6-33.75616H166.912c-12.8 0-25.6 16.87552-25.6 33.75616v8.77568c0 16.87552 6.656 33.75616 25.6 33.75616z m-25.6 341.9392c0 25.8816 12.8 42.91072 25.6 42.91072h505.856c12.8 0 25.6-17.02912 25.6-34.05824v-8.85248c0-17.02912-12.8-34.05824-25.6-34.05824H166.912c-18.944 0-25.6 17.02912-25.6 34.05824z m358.4-225.7152h-332.8c-12.8 0-25.6 16.91136-25.6 33.82784v8.12032c0 16.91136 12.8 33.82784 25.6 33.82784h339.456c12.8 0 25.6-16.91648 25.6-33.82784v-8.12032c-6.656-16.91648-12.8-33.82784-32.256-33.82784zM793.6 454.144c-12.8 0-34.304 12.8-34.304 25.6v291.84c0 32.256-25.6 57.344-57.856 57.344H124.928C92.672 829.44 67.072 803.84 67.072 771.584v-687.616c0-31.744 25.6-57.344 57.344-57.344h317.44c12.8 0 25.6-23.04 25.6-35.84s-12.8-35.84-25.6-35.84h-332.8c-64 0-109.056 51.2-109.056 109.056V786.944C0.512 844.8 51.712 896 109.568 896h607.744c64 0 109.056-51.2 109.056-109.056v-307.2c0-15.36-13.312-25.6-32.768-25.6z"  horiz-adv-x="1024" />

    
    <glyph glyph-name="gengduo1" unicode="&#59106;" d="M511.458671-122.780115c-68.614727 0-135.183865 13.441127-197.8583 39.949874-60.529585 25.602098-114.88761 62.250786-161.565722 108.927875S68.708871 127.132748 43.107797 187.663356c-26.508747 62.673411-39.949874 129.24255-39.949874 197.857277s13.441127 135.183865 39.949874 197.857277c25.602098 60.529585 62.250786 114.888634 108.927875 161.565722 46.677089 46.678112 101.036137 83.3268 161.565722 108.927875 62.674435 26.508747 129.24255 39.949874 197.8583 39.949874 68.614727 0 135.182842-13.441127 197.857277-39.949874 60.529585-25.602098 114.88761-62.250786 161.565723-108.927875 46.677089-46.677089 83.3268-101.036137 108.927874-161.565722 26.508747-62.673411 39.949874-129.24255 39.949874-197.857277s-13.441127-135.183865-39.949874-197.857277c-25.602098-60.529585-62.250786-114.88761-108.927874-161.565722s-101.035114-83.3268-161.565723-108.927875c-62.674435-26.50977-129.243573-39.949874-197.8583-39.949874z m0 992.042147c-65.310472 0-128.660288-12.788258-188.290387-38.009685-57.602929-24.363897-109.337197-59.245336-153.767106-103.675244-44.429909-44.429909-79.311347-96.164177-103.675244-153.767106C40.505529 514.180921 27.717272 450.830081 27.717272 385.520633s12.788258-128.660288 38.009685-188.289364c24.363897-57.602929 59.245336-109.337197 103.675244-153.767106 44.429909-44.429909 96.164177-79.311347 153.767106-103.674221 59.630099-25.221428 122.979916-38.010709 188.290387-38.010708 65.309448 0 128.659265 12.788258 188.290387 38.010708 57.601906 24.363897 109.336174 59.245336 153.766083 103.674221s79.311347 96.164177 103.675244 153.767106c25.220405 59.629075 38.009685 122.979916 38.009686 188.289364s-12.788258 128.660288-38.009686 188.290387c-24.364921 57.602929-59.245336 109.337197-103.675244 153.767106-44.429909 44.429909-96.164177 79.311347-153.766083 103.675244-59.631122 25.220405-122.980939 38.008662-188.29141 38.008662zM545.452903 419.563984l0.011256 272.227078c-0.002047 18.799158-15.276938 34.07405-34.029024 34.029024-18.801205 0-34.030048-15.229866-34.029024-34.029024l-0.011257-272.233218-272.242427-0.020466c-18.800181 0-34.029024-15.22782-34.029025-34.029025 0-18.801205 15.22782-34.028001 34.029025-34.029024l272.240381-0.010233-0.010233-272.219915c0-18.800181 15.228843-34.029024 34.030047-34.030048 18.775622-0.021489 34.026978 15.229866 34.029025 34.029025l0.010233 272.216845 272.289499-0.010233c18.752086 0.047072 34.004465 15.299451 34.051537 34.051537-0.024559 18.776645-15.300474 34.051537-34.075073 34.07405l-272.26494-0.016373z"  horiz-adv-x="1024" />

    
    <glyph glyph-name="jiangli" unicode="&#58899;" d="M922.47 73.227L820.976 223.582c56.168 65.484 90.116 150.583 90.116 243.619 0 206.772-167.627 374.399-374.399 374.399-206.771 0-374.4-167.627-374.4-374.399 0-93.036 33.949-178.136 90.117-243.619L150.916 73.227c-6.282-9.298-4.056-21.9 5.012-28.476l31.513-22.88c4.597-3.348 10.38-4.596 15.953-3.618l59.634 10.878 10.649-62.587a20.882 20.882 0 0 1 8.279-13.332l31.513-22.902a21.168 21.168 0 0 1 12.229-3.91c1.207 0 2.413 0.104 3.599 0.334 5.554 0.978 10.483 4.159 13.623 8.839l112.176 166.171a375.686 375.686 0 0 1 81.597-8.944c28.034 0 55.341 3.107 81.617 8.949l112.178-166.176c3.14-4.68 8.069-7.861 13.622-8.839 1.188-0.229 2.394-0.334 3.6-0.334 4.348 0 8.632 1.372 12.209 3.91l31.513 22.902a20.88 20.88 0 0 1 8.278 13.332l10.648 62.587 59.634-10.878c5.574-0.978 11.357 0.271 15.954 3.618l31.512 22.88c9.068 6.575 11.294 19.178 5.012 28.476z m-601.972-96.554l-7.239 5.263-12.75 74.985a20.753 20.753 0 0 1-8.571 13.541 20.85 20.85 0 0 1-15.663 3.41l-71.593-13.083-8.05 5.824 85.259 126.301c37.4-34.76 81.913-61.956 131.122-79.174l-92.515-137.067zM203.893 467.201C203.893 650.989 352.882 800 536.692 800c183.81 0 332.801-148.99 332.801-332.799 0-183.81-149.012-332.801-332.801-332.801-183.788-0.001-332.799 148.991-332.799 332.801z m664.809-406.412l-71.593 13.083c-5.43 1-11.107-0.229-15.663-3.41a20.755 20.755 0 0 1-8.57-13.541l-12.75-74.985-7.238-5.263-92.516 137.067c49.208 17.218 93.72 44.414 131.121 79.174l85.26-126.301-8.051-5.824zM557.521 408.645h119.005v20.101H547.034c1.941 6.213 3.642 12.72 5.097 19.519h-23.887c-1.555-6.896-3.401-13.401-5.535-19.519H398.025v-20.101h115.799c-16.605-32.822-57.148-54.186-121.625-64.09 5.631-8.156 10.39-15.536 14.275-22.141 66.613 12.625 109.972 39.621 130.072 80.988 25.928-41.952 68.605-67.78 128.035-77.49 5.437 8.544 11.07 16.603 16.896 24.179-57.003 3.594-98.32 23.109-123.956 58.554zM516.301 514.103c14.467 13.4 27.285 29.422 38.453 48.067h87.395c-10.777-22.238-25.88-40.591-45.299-55.06-13.499 12.332-27.529 23.791-42.096 34.375l-13.983-14.273c12.429-9.13 24.954-19.763 37.58-31.9-20.49-11.46-44.767-19.471-72.829-24.034 5.436-7.575 9.418-14.761 11.944-21.557 74.381 15.731 124.102 53.405 149.154 113.031v18.062H564.804c4.272 8.449 8.205 17.381 11.799 26.801l-21.849 4.37c-12.625-34.375-31.27-62.051-55.934-83.026 6.215-3.884 12.041-8.837 17.481-14.856zM442.014 537.699l16.022 15.44c-13.208 13.401-27.58 26.121-43.116 38.162l-14.274-14.273c13.012-10.295 26.802-23.403 41.368-39.329zM468.815 499.682v-55.787h22.723V609.946h-22.723v-86.958c-23.403-10.488-49.04-21.025-76.908-31.608l7.574-23.014c30.297 13.692 53.407 24.129 69.334 31.316z"  horiz-adv-x="1024" />

    
    <glyph glyph-name="gouwu" unicode="&#58884;" d="M854.569 642.328h-138.1v61.228c0 46.616-40.144 87.515-85.906 87.515h-235.8c-45.982 0-86.323-40.898-86.323-87.515v-61.228h-138.1c-14.097 0-25.514-11.436-25.514-25.531v-538.151c0-70.005 54.082-126.984 120.571-126.984h494.511c66.273 0 120.194 56.98 120.194 126.984V616.797c0.001 14.095-11.434 25.531-25.531 25.531z m-495.067 61.229c0 18.067 17.788 36.451 35.261 36.451h235.8c17.609 0 34.882-18.067 34.882-36.451v-61.228H359.501v61.228z m-51.063-112.292v-82.433c-7.425-7.187-12.071-17.232-12.071-28.39 0-21.879 17.77-39.668 39.668-39.668 21.879 0 39.628 17.789 39.628 39.668 0 13.064-6.392 24.579-16.162 31.807v79.016h305.944v-79.016c-9.787-7.227-16.2-18.742-16.2-31.807 0-21.879 17.748-39.668 39.646-39.668 21.899 0 39.648 17.789 39.648 39.668 0 11.158-4.647 21.203-12.071 28.39v82.433h112.589v-457.902h-633.19V591.265h112.571z m451.468-588.538H265.396c-38.337 0-69.528 34.028-69.528 75.92v10.086h633.19v-10.086c-0.001-41.892-31.031-75.92-69.152-75.92z"  horiz-adv-x="1024" />

    
    <glyph glyph-name="icon_shangchuanzhaopian" unicode="&#58887;" d="M813.377255 896h50.196078v-20.078431h-50.196078zM963.96549-107.921569h50.196079v-20.078431h-50.196079zM863.573333-107.921569h50.196079v-20.078431h-50.196079zM662.78902-107.921569h50.196078v-20.078431h-50.196078zM211.024314 896h50.196078v-20.078431h-50.196078zM763.181176-107.921569h50.196079v-20.078431h-50.196079zM261.220392-107.921569h50.196079v-20.078431h-50.196079zM562.396863-107.921569h50.196078v-20.078431h-50.196078zM361.612549-107.921569h50.196078v-20.078431h-50.196078zM462.004706-107.921569h50.196078v-20.078431h-50.196078zM913.769412 896h50.196078v-20.078431h-50.196078zM1004.122353 685.176471h20.078431v-50.196079h-20.078431zM1004.122353 584.784314h20.078431v-50.196079h-20.078431zM612.592941 896h50.196079v-20.078431h-50.196079zM1004.122353 885.960784h20.078431v-50.196078h-20.078431zM1004.122353 785.568627h20.078431v-50.196078h-20.078431zM1004.122353 283.607843h20.078431v-50.196078h-20.078431zM1004.122353 384h20.078431v-50.196078h-20.078431zM1004.122353 183.215686h20.078431v-50.196078h-20.078431zM1004.122353 82.823529h20.078431v-50.196078h-20.078431zM1004.122353-17.568627h20.078431v-50.196079h-20.078431zM1004.122353 484.392157h20.078431v-50.196079h-20.078431zM0.200784 333.803922h20.078432v-50.196079h-20.078432zM0.200784 233.411765h20.078432v-50.196079h-20.078432zM0.200784 434.196078h20.078432v-50.196078h-20.078432zM0.200784 634.980392h20.078432v-50.196078h-20.078432zM0.200784 133.019608h20.078432v-50.196079h-20.078432zM0.200784 534.588235h20.078432v-50.196078h-20.078432zM0.200784 32.627451h20.078432v-50.196078h-20.078432zM512.200784 896h50.196079v-20.078431h-50.196079zM712.985098 896h50.196078v-20.078431h-50.196078zM411.808627 896h50.196079v-20.078431h-50.196079zM0.200784 735.372549h20.078432v-50.196078h-20.078432zM311.416471 896h50.196078v-20.078431h-50.196078zM0.200784-67.764706h20.078432v-50.196078h-20.078432zM160.828235-107.921569h50.196079v-20.078431h-50.196079zM60.436078-107.921569h50.196079v-20.078431H60.436078zM110.632157 896h50.196078v-20.078431h-50.196078zM10.24 896h50.196078v-20.078431H10.24zM0.200784 835.764706h20.078432v-50.196079h-20.078432zM642.710588 564.705882h60.235294v-60.235294h20.078432v60.235294h60.235294v20.078432h-60.235294v60.235294h-20.078432v-60.235294h-60.235294zM677.847843 479.372549h-40.156863c-2.007843 29.113725-27.105882 53.207843-58.227451 53.207843h-160.627451c-31.121569 0-56.219608-23.090196-58.227451-53.207843h-40.156862c-32.12549 0-58.227451-25.098039-58.227451-57.223529v-231.905883c0-31.121569 26.101961-57.223529 58.227451-57.223529h357.396078c32.12549 0 58.227451 25.098039 58.227451 57.223529V422.14902c0 31.121569-26.101961 57.223529-58.227451 57.223529z m39.152941-64.25098v-213.835294c0-29.113725-24.094118-52.203922-54.211764-52.203922H334.506667c-30.117647 0-54.211765 23.090196-54.211765 52.203922V415.121569c0 29.113725 20.078431 44.172549 50.196078 44.172549h44.172549c2.007843 27.105882 21.082353 56.219608 49.192157 56.219607h147.576471c28.109804 0 48.188235-29.113725 49.192157-56.219607h40.156862c32.12549 0 56.219608-15.058824 56.219608-44.172549zM663.792941 425.160784h-30.117647c-5.019608 0-10.039216-3.011765-10.039216-8.031372 0-4.015686 4.015686-8.031373 10.039216-8.031373h30.117647c5.019608 0 10.039216 3.011765 10.039216 8.031373s-4.015686 8.031373-10.039216 8.031372zM499.149804 420.141176c-40.156863 1.003922-78.305882-21.082353-98.384314-55.215686-20.078431-35.137255-20.078431-78.305882 0-113.443137s58.227451-56.219608 98.384314-55.215686c61.239216 1.003922 111.435294 51.2 111.435294 112.439215 0 60.235294-50.196078 110.431373-111.435294 111.435294z m66.258823-178.698039c-18.070588-18.070588-41.160784-27.105882-66.258823-27.105882-52.203922 0-94.368627 42.164706-94.368628 93.364706s42.164706 93.364706 94.368628 93.364706c25.098039 0 49.192157-10.039216 66.258823-27.105883 18.070588-18.070588 27.105882-41.160784 27.105883-66.258823 1.003922-25.098039-9.035294-49.192157-27.105883-66.258824z"  horiz-adv-x="1044" />

    
    <glyph glyph-name="tishi" unicode="&#59053;" d="M865.28 216.32c-11.52-51.2-29.44-87.04-46.08-112.64-3.84-5.12-14.08-19.2-21.76-26.88-7.68-7.68-20.48-19.2-25.6-23.04-24.32-17.92-58.88-37.12-106.24-48.64-64-15.36-122.88-17.92-154.88-17.92-33.28 0-90.88 2.56-154.88 17.92-47.36 11.52-81.92 30.72-106.24 48.64-5.12 3.84-17.92 15.36-25.6 23.04-7.68 7.68-17.92 21.76-21.76 26.88-17.92 25.6-35.84 61.44-46.08 112.64-15.36 67.84-16.64 129.28-16.64 163.84 0 34.56 1.28 97.28 16.64 163.84 11.52 51.2 29.44 87.04 46.08 112.64 3.84 5.12 14.08 19.2 21.76 26.88 7.68 7.68 20.48 19.2 25.6 23.04 24.32 17.92 58.88 37.12 106.24 48.64 64 15.36 122.88 17.92 154.88 17.92 33.28 0 90.88-2.56 154.88-17.92 47.36-11.52 81.92-30.72 106.24-48.64 5.12-3.84 17.92-15.36 25.6-23.04 7.68-7.68 17.92-21.76 21.76-26.88 17.92-25.6 35.84-61.44 46.08-112.64 15.36-67.84 16.64-129.28 16.64-163.84 0-34.56-2.56-97.28-16.64-163.84z m154.88 163.84c0 197.12-57.6 312.32-142.08 386.56-103.68 92.16-222.72 115.2-367.36 115.2s-263.68-23.04-367.36-115.2c-84.48-75.52-142.08-189.44-142.08-386.56 0-197.12 57.6-312.32 142.08-386.56 103.68-92.16 222.72-115.2 367.36-115.2s263.68 23.04 367.36 115.2c84.48 74.24 142.08 189.44 142.08 386.56zM487.68 259.84c-7.68 0-12.8 6.4-12.8 12.8V640c0 7.68 5.12 12.8 12.8 12.8h64c7.68 0 12.8-6.4 12.8-12.8v-367.36c0-7.68-5.12-12.8-12.8-12.8h-64z m0-139.52c-7.68 0-12.8 5.12-12.8 12.8v65.28c0 7.68 5.12 12.8 12.8 12.8h64c7.68 0 12.8-5.12 12.8-12.8v-65.28c0-7.68-5.12-12.8-12.8-12.8h-64z"  horiz-adv-x="1024" />

    
    <glyph glyph-name="gengduo" unicode="&#58881;" d="M492.676-8.818l393.02 393.02-393.02 393.02c-12.258 12.259-12.432 32.893 0.187 45.511 12.708 12.708 32.996 12.704 45.512 0.188l411.66-411.661c7.12-7.12 10.164-17.066 8.991-26.625 1.5-9.755-1.51-20.01-8.99-27.49l-411.661-411.66c-12.258-12.259-32.892-12.433-45.512 0.187-12.707 12.707-12.703 32.995-0.187 45.51z"  horiz-adv-x="1024" />

    
    <glyph glyph-name="shouyi" unicode="&#59021;" d="M12.22656-95.35488c0 17.65376 14.336 31.98976 31.9488 31.98976H1180.672a31.98976 31.98976 0 0 0 0-63.95904H44.17536c-17.65376 0-31.9488 14.47936-31.9488 31.9488z m880.0256 872.91904h-6.81984c-15.23712 0-28.83584 9.66656-32.72704 25.27232-3.2768 16.2816 6.08256 32.09216 23.20384 38.8096L1000.57088 877.93664c10.79296 3.584 22.26176 2.56 31.06816-6.20544 5.9392-5.89824 8.88832-9.66656 11.264-16.7936l0.6144-2.31424 27.87328-133.5296c3.4816-17.2032-6.90176-33.13664-23.73632-38.7072l-3.13344-1.04448h-5.8368c-16.01536 0-29.53216 10.56768-32.70656 26.37824L984.43264 808.96l20.0704 4.17792 17.73568-10.19904a158.86336 158.86336 0 0 1-6.18496-12.34944 173.32224 173.32224 0 0 0-7.168-14.336c-4.096-8.15104-8.2944-16.26112-12.55424-24.28928-161.25952-303.45216-452.34176-517.24288-782.45888-573.62432l-3.46112-0.28672c-18.5344 0-32.07168 10.56768-35.38944 27.15648a33.64864 33.64864 0 0 0 26.89024 38.7072c313.69216 53.39136 588.73856 257.2288 740.06528 548.53632 2.70336 5.24288 5.38624 10.48576 8.02816 15.7696 4.66944 8.15104 9.40032 17.53088 12.88192 25.62048l18.80064-8.11008 5.87776-19.61984-95.31392-28.5696z m146.432-57.26208h2.53952v-0.57344a6.4512 6.4512 0 0 1-2.53952 0.57344zM1012.736 838.84032l-0.26624-0.06144a3.072 3.072 0 0 1 0.26624 0.06144z m11.776-21.504l21.54496-103.3216a8.45824 8.45824 0 0 1-4.85376 5.7344v-19.92704l-6.4512 19.43552c-2.02752-0.67584-4.34176-4.23936-3.50208-8.37632l-27.83232 133.36576 20.04992 4.17792-19.41504-6.51264c2.048-2.02752 3.97312-2.78528 5.5296-3.11296 1.20832-0.22528 2.21184-0.2048 2.88768-0.02048l-123.2896-35.84c2.56 1.04448 4.4032 4.1984 3.44064 8.92928a9.33888 9.33888 0 0 1-3.39968 5.3248 6.71744 6.71744 0 0 1-3.13344 1.29024c-0.22528 0.04096 3.13344 0.04096 3.13344 0.04096v-20.48l-5.87776 19.61984L1017.856 857.98912l-17.36704-40.3456c-4.11648-9.54368-9.54368-20.31616-14.41792-28.73344-154.54208-309.94432-444.35456-528.30208-775.68-585.07264a7.7824 7.7824 0 0 1 4.87424 8.8064 8.43776 8.43776 0 0 1-4.87424 5.81632 12.6976 12.6976 0 0 1-2.51904 0.57344h2.51904v-20.48l-3.44064 20.19328C533.89312 275.1488 819.9168 490.41408 972.8 795.648c1.7408 3.01056 3.09248 5.77536 6.18496 12.34944 3.56352 7.5776 5.26336 11.01824 7.74144 15.36l26.8288 46.67392 10.97728-52.71552z m-21.2992-248.17664c17.6128 0 33.13664-15.44192 33.13664-33.0752v-628.46976c0-18.90304-14.25408-33.0752-33.15712-33.0752-18.88256 0-33.13664 14.17216-33.13664 33.0752V536.08448c0 18.90304 14.25408 33.0752 33.13664 33.0752zM749.91616 323.56352c17.6128 0 33.13664-15.44192 33.13664-33.0752V-92.3648c0-18.90304-14.25408-33.0752-33.13664-33.0752-18.88256 0-33.15712 14.17216-33.15712 33.0752V290.48832c0 18.90304 14.27456 33.0752 33.15712 33.0752zM496.64 172.4416c18.88256 0 33.13664-14.17216 33.13664-33.0752V-92.3648c0-18.90304-14.25408-33.0752-33.13664-33.0752-18.88256 0-33.15712 14.17216-33.15712 33.0752V139.34592c0 18.90304 14.27456 33.0752 33.15712 33.0752zM276.48 57.48736v-149.87264c0-18.90304-14.25408-33.0752-33.13664-33.0752-18.88256 0-33.13664 14.17216-33.13664 33.0752v149.87264c0 18.90304 14.25408 33.0752 33.13664 33.0752 18.88256 0 33.13664-14.17216 33.13664-33.0752z"  horiz-adv-x="1228" />

    
    <glyph glyph-name="shanchu3" unicode="&#58919;" d="M510.969531 830.327278c-244.228397 0-442.942181-198.713784-442.942182-442.971857 0-244.228397 198.713784-442.942181 442.942182-442.942181s442.942181 198.713784 442.942181 442.942181c0 244.258073-198.713784 442.971857-442.942181 442.971857z m0-818.922275c-207.281927 0-375.950418 168.669514-375.950418 375.950418 0 207.311603 168.669514 375.980093 375.950418 375.980094s375.950418-168.669514 375.950417-375.980094c0-207.280904-168.669514-375.950418-375.950417-375.950418zM554.862203 387.366677l99.57281 99.57281c12.07399 12.07399 12.07399 31.829939 0.004093 43.899836-12.07706 12.07399-31.829939 12.07399-43.903929 0l-99.572809-99.57281-99.57281 99.57281c-12.07399 12.07399-31.829939 12.07399-43.899836 0.004093-12.07399-12.07399-12.07399-31.829939 0-43.903929l99.57281-99.57281-99.576903-99.576902c-12.069897-12.069897-12.069897-31.821753 0.00307-43.895743 12.069897-12.07399 31.825846-12.07399 43.896766 0l99.576903 99.572809 99.576902-99.572809c12.069897-12.07399 31.822776-12.07399 43.899836 0 12.069897 12.07399 12.069897 31.825846 0 43.896766l-99.576903 99.575879z"  horiz-adv-x="1024" />

    
    <glyph glyph-name="baodanyue" unicode="&#59066;" d="M519.299 364.33399999999995c-1.103 14.501-12.747 24.957-26.573 24.957H241.245c-13.872 0-25.539-11.501-25.539-24.957 0.025-13.511 13.847-30.077 27.648-30.077h252.584c13.801 0 23.361 16.566 23.361 30.077z m7.843-333.094H188.378c-51.318 0-55.136 0.463-55.136 55.136V665.3050000000001c0 56.145 7.148 82.704 55.136 82.704h55.136c4.499-47.96 40.525-82.704 82.704-82.704h275.681c57.515 0 51.949 51.133 55.136 82.704h82.704c48.159 0 53.195-22.151 53.195-71.95v-296.166a233.132 233.132 0 0 0 57.077-25.785V692.874c0 76.534-63.087 110.272-137.84 110.272H601.899v-55.136c0-29.018-15.281-27.568-27.568-27.568H326.218c-17.456 0-27.568 3.747-27.568 27.568-0.033-4.791 0 55.136 0 55.136H160.81c-81.524 0-82.704-52.021-82.704-82.704v-661.633c0-59.916 14.958-82.704 82.704-82.704h414.167a235.509 235.509 0 0 0-47.835 55.135zM375.753 748.175h150.342c11.413 0 21.023 12.301 21.023 27.543 0 15.22-9.563 27.491-21.624 27.491H375.777c-12.014 0-21.602-12.271-21.602-27.491 0-15.215 9.61-27.543 21.578-27.543zM241.874 224.288c-14.195 0-26.176-13.456-26.176-26.995 0-13.508 9.012-28.039 23.232-28.039h141.06c14.167 0 29.117 14.501 29.117 28.039-1.056 14.556-13.012 26.995-27.257 26.995H241.874z m470.658 303.9c-1.464 15.231-12.852 26.829-26.518 27.022H241.215c-13.825 0-25.484-13.539-25.484-27.022 0-13.566 8.764-28.012 22.636-28.012h445.831c13.822 0 28.334 14.445 28.334 28.012z m40.991-193.699c-98.964 0-179.192-80.229-179.192-179.192s80.229-179.192 179.192-179.192c98.967 0 179.192 80.229 179.192 179.192S852.49 334.48900000000003 753.523 334.48900000000003z m53.667-242.067h-37.473v-44.765c-0.518-9.221-7.565-16.414-16.08-16.414-8.519 0-15.565 7.193-16.083 16.414v44.765H700.02c-8.623 0.403-15.419 8.099-15.419 17.462s6.796 17.062 15.419 17.462h37.534v19.651H700.02c-8.604 0.4-15.388 8.083-15.388 17.429 0 9.343 6.785 17.029 15.388 17.431h30.074l-37.771 41.041c-6.28 6.823-6.28 17.872 0 24.698 6.319 6.762 16.475 6.762 22.796 0l38.518-41.788 38.518 41.788c6.294 6.773 16.442 6.773 22.735 0 6.28-6.826 6.28-17.875 0-24.698l-37.774-41.041h30.074c8.607-0.403 15.391-8.089 15.391-17.431 0-9.346-6.784-17.029-15.391-17.429h-37.473v-19.651h37.473c8.621-0.4 15.422-8.099 15.422-17.462s-6.802-17.059-15.422-17.462z"  horiz-adv-x="1024" />

    
    <glyph glyph-name="cuowu" unicode="&#58890;" d="M510.1-57.6c-59.9 0-117.9 11.7-172.6 34.9-52.8 22.3-100.2 54.3-141 95-40.7 40.7-72.7 88.1-95 141C78.3 268 66.6 326 66.6 385.9c0 59.9 11.7 117.9 34.9 172.6 22.3 52.8 54.3 100.2 95 141 40.7 40.7 88.1 72.7 141 95 54.7 23.1 112.8 34.9 172.6 34.9 59.9 0 117.9-11.7 172.6-34.9 52.8-22.3 100.2-54.3 141-95 40.7-40.7 72.7-88.1 95-141 23.1-54.7 34.9-112.8 34.9-172.6 0-8.8-7.2-16-16-16s-16 7.2-16 16c0 55.6-10.9 109.4-32.3 160.2-20.7 49-50.4 93-88.2 130.8-37.8 37.8-81.8 67.5-130.8 88.2-50.7 21.5-104.6 32.3-160.2 32.3s-109.4-10.9-160.2-32.3c-49-20.7-93-50.4-130.8-88.2s-67.5-81.8-88.2-130.8c-21.5-50.7-32.3-104.6-32.3-160.2s10.9-109.4 32.3-160.2c20.7-49 50.4-93 88.2-130.8s81.8-67.5 130.8-88.2c50.7-21.5 104.6-32.3 160.2-32.3 58.7 0 115.4 12.1 168.5 36 51.3 23.1 96.7 55.9 134.9 97.5 6 6.5 16.1 7 22.6 1s7-16.1 1-22.6c-41.1-44.9-90-80.2-145.3-105.1-57.3-25.7-118.4-38.8-181.7-38.8z m371.2 215.3c-2.7 0-5.4 0.7-7.9 2.1-7.7 4.4-10.3 14.2-5.9 21.8 17.4 30.4 30.9 63 40 96.8 2.3 8.5 11.1 13.6 19.6 11.3 8.5-2.3 13.6-11.1 11.3-19.6-9.8-36.4-24.3-71.5-43.1-104.4-3.1-5.1-8.5-8-14-8zM706.1 179.9c-4.1 0-8.2 1.6-11.3 4.7l-368 370c-6.2 6.3-6.2 16.4 0.1 22.6 6.3 6.2 16.4 6.2 22.6-0.1l368-370c6.2-6.3 6.2-16.4-0.1-22.6-3.1-3-7.2-4.6-11.3-4.6zM337.1 180.9c-4.1 0-8.2 1.6-11.3 4.7-6.2 6.3-6.2 16.4 0.1 22.6l370 368c6.3 6.2 16.4 6.2 22.6-0.1 6.2-6.3 6.2-16.4-0.1-22.6l-370-368c-3.1-3-7.2-4.6-11.3-4.6z"  horiz-adv-x="1024" />

    
    <glyph glyph-name="xiaolian" unicode="&#58893;" d="M511.2-53.8c-59.6 0-117.5 11.7-171.9 34.7-52.7 22.3-99.9 54.1-140.6 94.8-40.6 40.6-72.5 87.9-94.8 140.5-23.1 54.5-34.8 112.4-34.8 172.1S80.9 505.9 104 560.4c22.3 52.7 54.2 99.9 94.8 140.6 40.6 40.6 87.9 72.5 140.6 94.8 54.5 23.1 112.4 34.8 172.1 34.8 59.7 0 117.6-11.7 172.1-34.8 52.7-22.3 99.9-54.2 140.6-94.8s72.5-87.9 94.8-140.6c23.1-54.5 34.8-112.4 34.8-172.1 0-84-23.6-165.7-68.3-236.2-4.7-7.5-14.6-9.7-22.1-5-7.5 4.7-9.7 14.6-5 22.1 41.4 65.4 63.3 141.1 63.3 219 0 55.4-10.8 109.1-32.2 159.7-20.7 48.8-50.2 92.7-87.9 130.4s-81.5 67.3-130.4 87.9c-50.6 21.4-104.3 32.2-159.7 32.2-55.4 0-109.1-10.8-159.7-32.2-48.8-20.7-92.7-50.3-130.4-87.9-37.7-37.7-67.3-81.6-87.9-130.4-21.4-50.6-32.2-104.3-32.2-159.6 0-55.4 10.8-109.1 32.2-159.6 20.7-48.8 50.2-92.7 87.9-130.4s81.5-67.3 130.4-87.9c50.5-21.4 104.2-32.2 159.5-32.2h0.2c47.8 0 94.6 8.1 139.1 24.2 43 15.5 82.9 38 118.6 66.9 6.9 5.6 16.9 4.5 22.5-2.4 5.6-6.9 4.5-16.9-2.4-22.5-38.5-31.1-81.6-55.4-127.9-72.1-48-17.3-98.4-26-149.9-26-0.2-0.1-0.2-0.1-0.3-0.1zM360.9 462.1m-50 0a50 50 0 1 1 100 0 50 50 0 1 1-100 0ZM659.4 462.1m-50 0a50 50 0 1 1 100 0 50 50 0 1 1-100 0ZM518.4 150.9c-49.5 0-98.5 18.1-142 52.5-33 26.1-51.2 52.3-51.9 53.4-5 7.3-3.2 17.2 4.1 22.3 7.3 5 17.2 3.2 22.2-4.1 0.2-0.2 16.8-23.9 46.2-47.1 38.6-30.3 80-45.5 123-45h0.2c0.2 0 26.8 0.3 59.3 11.8 42.7 15.2 75.2 41.8 96.7 79.1 4.4 7.7 14.2 10.3 21.8 5.9 7.7-4.4 10.3-14.2 5.9-21.8-25.2-43.9-65-76.3-114.9-93.7-36.8-12.9-66.5-13.3-68.8-13.3h-1.8z"  horiz-adv-x="1024" />

    
    <glyph glyph-name="tianjiashouhuodizhi" unicode="&#59071;" d="M512 314.2c-89.8 0-162.9 73.1-162.9 162.9S422.2 640 512 640c89.8 0 162.9-73.1 162.9-162.9S601.8 314.2 512 314.2z m0 256c-51.3 0-93.1-41.8-93.1-93.1S460.7 384 512 384s93.1 41.8 93.1 93.1-41.8 93.1-93.1 93.1zM512-128c-87.4 0-196.1 110.3-268.6 213.6-94.1 134-150.3 281.1-150.3 393.3C93.1 708.9 281 896 512 896c115.4 0 222.9-45.7 302.7-128.8 13.4-13.9 12.9-36-1-49.4-13.9-13.3-36-12.9-49.3 1C697.9 788.1 608.2 826.2 512 826.2c-192.5 0-349.1-155.8-349.1-347.2 0-219.3 245.1-537.1 349.1-537.1 106.7 0 349.1 312.1 349.1 537.1 0 19.3 15.6 34.9 34.9 34.9s34.9-15.6 34.9-34.9c0-219.8-242.2-607-418.9-607z"  horiz-adv-x="1024" />

    
    <glyph glyph-name="pengyouquan" unicode="&#58952;" d="M514.56 386.56m-355.84 0a355.84 355.84 0 1 1 711.68 0 355.84 355.84 0 1 1-711.68 0ZM736.256 832H288.256c-123.392 0-224.256-100.864-224.256-224.256v-448c0-123.392 100.864-224.256 224.256-224.256h448c123.392 0 224.256 100.864 224.256 224.256V608.256c0 122.88-100.864 223.744-224.256 223.744z m-99.84-172.544c24.576-10.24 47.616-24.064 68.608-40.96 8.704-6.656 16.896-14.336 25.088-22.528 18.944-18.944 34.304-39.424 47.104-61.44l9.216-16.896-150.016-150.016c1.536 9.728 0 291.84 0 291.84zM486.912 680.96c10.752 1.536 22.016 2.048 33.792 2.048 26.624 0 52.224-3.584 76.8-10.24 6.144-1.536 12.288-3.584 18.432-5.632v-211.968c-5.12 7.168-206.336 206.336-206.336 206.336 24.064 9.728 50.176 16.384 77.312 19.456zM286.72 569.344c6.656 8.704 14.336 16.896 22.528 25.088 18.944 18.944 39.424 34.304 61.952 47.104l16.896 9.216L537.6 500.736c-9.216 1.536-291.84 0-291.84 0 10.24 24.064 24.064 47.616 40.96 68.608z m-62.464-218.624c-1.536 10.752-2.048 22.528-2.048 33.792 0 26.624 3.584 52.224 10.24 76.8 1.536 6.144 3.584 12.288 5.632 18.432h211.968c-7.68-5.12-206.336-206.336-206.336-206.336-9.728 24.576-16.384 50.176-19.456 77.312z m110.592-200.192c-8.704 6.656-17.408 14.336-25.088 22.528-18.944 18.944-34.304 39.424-47.104 61.952l-9.216 16.896 150.016 150.016c-1.536-9.216 0-291.84 0-291.84-24.064 10.24-47.104 23.552-68.608 40.448z m218.624-63.488c-10.752-1.536-22.016-2.048-33.792-2.048-26.624 0-52.224 3.584-76.8 10.24-6.144 1.536-12.288 3.584-18.432 5.632v211.968c5.12-7.168 206.336-206.336 206.336-206.336-24.576-9.728-50.688-16.384-77.312-19.456z m198.656 110.592c-6.656-8.704-14.336-17.408-22.528-25.088-18.944-18.944-39.424-34.304-61.952-47.104l-16.896-9.216L500.736 266.24c9.216-1.536 291.84 0 291.84 0-9.728-24.576-23.552-47.616-40.448-68.608z m55.296 109.056c-1.536-6.144-3.584-12.288-5.632-18.432h-211.968c7.168 5.12 206.336 206.336 206.336 206.336 9.728-24.064 16.384-50.176 19.456-77.312 1.536-10.752 2.048-22.528 2.048-33.792 0-26.624-3.584-52.224-10.24-76.8z"  horiz-adv-x="1024" />

    
    <glyph glyph-name="qq" unicode="&#58953;" d="M522.752 356.864m-366.08 0a366.08 366.08 0 1 1 732.16 0 366.08 366.08 0 1 1-732.16 0ZM736.256 832H288.256c-123.392 0-224.256-100.864-224.256-223.744v-448c0-123.392 100.864-224.256 224.256-224.256h448c123.392 0 224.256 100.864 224.256 224.256V608.256c0 123.392-100.864 223.744-224.256 223.744z m33.792-597.504c-11.776-6.144-30.208 7.68-47.104 33.28-6.656-27.648-23.552-53.248-47.616-73.216 25.088-9.216 41.472-24.576 41.472-41.984 0-28.16-44.544-51.2-99.84-51.2-49.664 0-90.624 18.944-98.304 43.008H506.88c-7.68-24.576-48.64-43.008-98.304-43.008-54.784 0-99.84 23.04-99.84 51.2 0 17.408 16.384 32.256 41.472 41.984-24.064 19.968-40.96 45.568-47.616 73.216-17.408-25.6-35.328-39.424-47.104-33.28-16.896 8.704-13.312 56.32 7.68 105.984 16.384 38.912 39.424 68.096 56.32 74.24 0 2.56-0.512 5.12-0.512 7.68 0 14.848 4.096 29.184 11.264 40.448v2.56c0 6.656 1.536 13.312 4.608 18.944 4.096 101.888 70.656 182.272 177.664 182.272s173.568-80.896 177.664-182.272c2.56-5.632 4.608-12.288 4.608-18.944v-2.56c7.168-11.264 11.264-25.6 11.264-40.448 0-2.56 0-5.12-0.512-7.68 17.408-6.144 39.936-35.328 56.32-74.24 21.504-49.152 25.088-96.768 8.192-105.984z"  horiz-adv-x="1024" />

    
    <glyph glyph-name="shouyi1" unicode="&#58903;" d="M12.227-95.355c0 17.654 14.336 31.99 31.948 31.99h1136.497c17.32-0.447 31.19-14.594 31.19-31.98s-13.87-31.533-31.149-31.979l-1136.538-0.001c-17.653 0-31.948 14.48-31.948 31.95zM892.252 777.565h-6.82c-15.237 0-28.836 9.666-32.727 25.271-3.277 16.282 6.083 32.093 23.204 38.81l124.662 36.29c10.793 3.585 22.262 2.56 31.068-6.205 5.94-5.898 8.888-9.666 11.264-16.793l0.614-2.315 27.874-133.53c3.481-17.202-6.902-33.136-23.737-38.706l-3.133-1.045h-5.837c-16.015 0-29.532 10.568-32.706 26.378l-21.545 103.24 20.070 4.178 17.736-10.2c-9.124-16.082-15.662-34.874-18.481-54.861 3.026 21.902-9.313 4.31-24.358-10.549-37.24-92.307-121.12-204.21-220.969-299.528 76.642 10.512-214.44-203.279-544.558-259.66l-3.46-0.287c-18.535 0-32.072 10.568-35.39 27.157-0.304 1.698-0.478 3.654-0.478 5.649 0 16.362 11.679 29.997 27.155 33.023 313.905 53.426 588.952 257.264 740.279 548.571 69.419 131.353 120.209 284.098 143.856 445.658-131.158-421.738-126.428-412.358-122.946-404.268l18.8-8.11 5.878-19.62-95.314-28.57zM1038.684 720.302h2.54v-0.573c-0.772 0.358-1.675 0.569-2.626 0.574zM1012.736 838.84l-0.266-0.061c0.264 0.049 0.498 0.124 0.718 0.224zM1024.512 817.336l21.545-103.321c-0.701 2.769-2.697 4.957-5.29 5.911l0.436-20.104-6.451 19.436c-2.028-0.676-4.342-4.24-3.502-8.377l-27.832 133.366 20.050 4.178-19.416-6.513c2.048-2.027 3.974-2.785 5.53-3.113 1.208-0.225 2.212-0.204 2.888-0.020l-123.29-35.84c2.56 1.044 4.403 4.198 3.44 8.93-0.573 2.465-2.060 4.51-4.076 5.802-0.336 0.292-1.599 0.783-2.972 0.862 0.29-0.009 3.649-0.009 3.649-0.009v-20.48l-5.878 19.62 134.513 40.325-17.367-40.345c-4.117-9.544-9.544-20.317-14.418-28.734-154.542-309.944-444.355-528.302-775.68-585.073 2.963 1.145 5.026 3.97 5.026 7.278 0 0.541-0.055 1.070-0.16 1.58-0.666 2.748-2.667 4.967-5.277 5.933-0.7 0.222-1.983 0.462-3.316 0.497l3.728-0.090v-20.48l-3.44 20.193c326.941 56.402 612.965 271.667 765.849 576.901 1.74 3.010 3.092 5.775 6.185 12.35 3.563 7.577 5.263 11.018 7.741 15.36l26.83 46.673 10.976-52.715zM1003.212 569.16c17.614 0 33.137-15.442 33.137-33.076v-628.47c0-18.902-14.254-33.074-33.157-33.074-18.882 0-33.136 14.172-33.136 33.075v628.47c0 18.903 14.254 33.075 33.136 33.075zM749.917 323.564c17.613 0 33.137-15.442 33.137-33.076v-382.853c0-18.903-14.254-33.075-33.137-33.075-18.882 0-33.157 14.172-33.157 33.075v382.853c0 18.903 14.275 33.076 33.157 33.076zM496.64 172.442c18.883 0 33.137-14.173 33.137-33.076v-231.73c0-18.904-14.254-33.076-33.137-33.076s-33.157 14.172-33.157 33.075v231.71c0 18.904 14.274 33.076 33.157 33.076zM276.48 57.487v-149.872c0-18.903-14.254-33.075-33.137-33.075-18.882 0-33.136 14.172-33.136 33.075v149.872c0 18.903 14.254 33.076 33.136 33.076 18.883 0 33.137-14.173 33.137-33.076z"  horiz-adv-x="1228" />

    
    <glyph glyph-name="gengduo2" unicode="&#58918;" d="M541.933-128a18.454 18.454 0 0 0-13.007 5.36c-7.164 7.17-7.164 18.816 0 25.982l480.654 480.653-480.617 480.65c-7.166 7.163-7.166 18.81 0 25.98 7.169 7.163 18.81 7.163 25.98 0L1048.6 396.998a18.346 18.346 0 0 0 5.366-13.004c0-4.888-1.95-9.554-5.366-13.008l-493.658-493.625a18.455 18.455 0 0 0-13.01-5.362z m0 0M18.38-128a18.454 18.454 0 0 0-13.008 5.36c-7.163 7.17-7.163 18.816 0 25.982l480.655 480.653L5.41 864.645c-7.166 7.163-7.166 18.81 0 25.98 7.169 7.163 18.81 7.163 25.98 0l493.658-493.626a18.346 18.346 0 0 0 5.366-13.004c0-4.888-1.95-9.554-5.366-13.008L31.389-122.638A18.455 18.455 0 0 0 18.38-128z m0 0"  horiz-adv-x="1054" />

    
    <glyph glyph-name="yonghuming" unicode="&#58945;" d="M941.007172-66.888575v-32.086589a29.023382 29.023382 0 0 0-58.046763 0V-66.888575h-0.103271a377.391232 377.391232 0 0 1-139.349758 290.299269 29.067017 29.067017 0 0 0 14.210607 54.398841h5.073346C776.308136 275.610309 791.25909 257.468151 791.25909 257.468151v1.698872A435.235817 435.235817 0 0 0 941.037717-66.888575h-0.030545zM363.967831 343.339775c1.336699 0.455263 2.68067 0.894526 4.023187 1.338154l-2.904666-1.393425z m295.022077 0.327266c0.802892-0.27054 1.607238-0.535261 2.408676-0.811619l-2.50031 0.429082-0.334538 0.158542A292.485404 292.485404 0 0 0 519.264885 308.376157c-207.88648 0-376.573795-167.747699-378.137397-375.264732h-0.103271v-32.086589a29.023382 29.023382 0 0 0-58.046763 0V-66.888575h-0.030545C84.196337 123.953904 207.94061 285.711912 379.502045 343.687404A293.750832 293.750832 0 0 0 225.452964 602.188078c0 162.267088 131.544834 293.811922 293.811921 293.811922s293.811922-131.544834 293.811922-293.811922a293.750832 293.750832 0 0 0-154.086899-258.521037zM519.264885 837.819421a235.631343 235.631343 0 1 1 235.631344-235.631343 235.631343 235.631343 0 0 1-235.631344 235.631343z"  horiz-adv-x="1024" />

    
    <glyph glyph-name="daojishi" unicode="&#59101;" d="M511.970752 890.905473c-280.199005 0-509.452736-229.253731-509.452736-509.452737s229.253731-509.452736 509.452736-509.452736c101.890547 0 203.781095 35.661692 290.38806 91.701493 10.189055 5.094527 10.189055 20.378109 5.094527 35.661691-5.094527 10.189055-20.378109 10.189055-35.661691 5.094527-81.512438-50.945274-173.21393-86.606965-264.915423-86.606965-254.726368 0-463.60199 203.781095-463.60199 463.60199s203.781095 463.60199 463.60199 463.60199c254.726368 0 463.60199-203.781095 463.60199-463.60199 0-91.701493-30.567164-183.402985-81.512438-259.820895-5.094527-10.189055-5.094527-20.378109 5.094528-35.661692 10.189055-5.094527 20.378109-5.094527 35.661691 5.094528 56.039801 86.606965 86.606965 183.402985 86.606965 285.293532 5.094527 290.38806-224.159204 514.547264-504.358209 514.547264zM522.159807 722.78607c-10.189055 0-20.378109-10.189055-20.378109-20.37811v-320.955224c0-5.094527 0-10.189055 5.094527-15.283582l178.308458-178.308457c5.094527-5.094527 10.189055-5.094527 15.283582-5.094528 5.094527 0 10.189055 0 15.283582 5.094528 10.189055 10.189055 10.189055 20.378109 0 35.661691l-173.213931 173.21393v310.76617c5.094527 5.094527-10.189055 15.283582-20.378109 15.283582zM827.831449 45.21393c0-15.283582 10.189055-25.472637 25.472637-25.472636s25.472637 10.189055 25.472636 25.472636-10.189055 25.472637-25.472636 25.472637-25.472637-10.189055-25.472637-25.472637z"  horiz-adv-x="1024" />

    
    <glyph glyph-name="shanchu1" unicode="&#58967;" d="M991.158143 793.282052a29.354324 29.354324 0 0 1-20.923489 8.669765h-268.216604L617.061174 886.908693A31.811896 31.811896 0 0 1 593.884911 895.988053h-189.164726a30.856173 30.856173 0 0 1-21.913344-9.07936L297.849965 801.951817H29.633361a29.695654 29.695654 0 0 1 0-59.254775h283.951887a30.958572 30.958572 0 0 1 21.98161 9.079361l84.956876 84.956875h158.85468l84.922742-84.956875a30.890306 30.890306 0 0 1 21.947478-9.079361l283.98602-0.034133a29.695654 29.695654 0 0 1 20.923489 50.619143zM341.40359 67.001458V584.217824a29.627388 29.627388 0 0 1-59.220642 0v-517.216366a29.627388 29.627388 0 0 1 59.220642 0zM717.582668 67.001458V584.217824a29.695654 29.695654 0 0 1-59.254775 0v-517.216366a29.627388 29.627388 0 0 1 59.254775 0zM529.510196 67.001458V584.217824a29.695654 29.695654 0 0 1-29.627388 29.627388 29.695654 29.695654 0 0 1-29.661521-29.627388v-517.216366a29.695654 29.695654 0 0 1 59.288909 0zM899.545345 637.362804a29.627388 29.627388 0 0 1-29.593254-29.627388v-634.736061a40.959522 40.959522 0 0 0-40.92539-40.925389H170.704782a40.959522 40.959522 0 0 0-40.925389 40.925389V607.735416c0 0.853323-0.136532 1.672514-0.238931 2.491705 0.034133 0.58026 0.170665 1.126387 0.170665 1.706646a29.661521 29.661521 0 0 1-59.254776 0l0.068266-0.716791v-638.285887a100.316696 100.316696 0 0 1 100.180165-100.180164h658.321919a100.282563 100.282563 0 0 1 100.180165 100.180164V607.735416a29.695654 29.695654 0 0 1-29.661521 29.627388z"  horiz-adv-x="1024" />

    
    <glyph glyph-name="qipao" unicode="&#58889;" d="M514.796-58.637s-178.78 213.404-240.77 327.339c0 0-252.042 292.805 79.395 523.695 0 0 193.649 119.169 399.711-57.102 0 0 180.781-155.167 37.013-412.125 0.001 0.001-140.043-257.147-275.349-381.807z"  horiz-adv-x="1024" />

    
    <glyph glyph-name="zhanghu" unicode="&#59783;" d="M960 832H64C28.7 832 0 803.3 0 768v-704c0-35.3 28.7-64 64-64h352c17.7 0 32 14.3 32 32s-14.3 32-32 32H64V768h896v-288c0-17.7 14.3-32 32-32s32 14.3 32 32V768c0 35.3-28.7 64-64 64zM858.3 164.9c35.4 29.4 57.9 73.7 57.9 123.1 0 88.2-71.8 160-160 160s-160-71.8-160-160c0-49.5 22.6-93.7 57.9-123.1-20.5-10.5-39.5-24.3-56.3-41.1-42.3-42.3-65.6-98.6-65.6-158.4 0-17.7 14.3-32 32-32s32 14.3 32 32c0 88.2 71.8 160 160 160s160-71.8 160-160c0-17.7 14.3-32 32-32s32 14.3 32 32c0 59.8-23.3 116.1-65.6 158.4-16.8 16.8-35.8 30.6-56.3 41.1zM756.2 384c52.9 0 96-43.1 96-96s-43.1-96-96-96-96 43.1-96 96 43.1 96 96 96zM544 576H160c-17.7 0-32-14.3-32-32s14.3-32 32-32h384c17.7 0 32 14.3 32 32s-14.3 32-32 32zM480 448H160c-17.7 0-32-14.3-32-32s14.3-32 32-32h320c17.7 0 32 14.3 32 32s-14.3 32-32 32zM416 320H160c-17.7 0-32-14.3-32-32s14.3-32 32-32h256c17.7 0 32 14.3 32 32s-14.3 32-32 32z"  horiz-adv-x="1024" />

    
    <glyph glyph-name="baojiadan" unicode="&#58939;" d="M755.2-128c-147.2 0-268.8 121.6-268.8 268.8S608 409.6 755.2 409.6c147.2 0 268.8-121.6 268.8-268.8 0-147.2-121.6-268.8-268.8-268.8z m0 473.6C640 345.6 550.4 256 544 147.2S640-64 748.8-64h6.4c115.2 0 204.8 96 198.4 211.2 6.4 102.4-83.2 192-198.4 198.4z m57.6-204.8H864v-38.4h-70.4l-12.8-19.2v-6.4H864v-38.4h-83.2v-64h-51.2v64h-83.2v38.4h83.2v12.8l-12.8 19.2h-70.4v38.4h51.2l-44.8 70.4c-6.4 12.8-12.8 25.6-25.6 32h57.6c0-6.4 6.4-19.2 12.8-32l51.2-83.2 51.2 83.2c6.4 12.8 12.8 25.6 12.8 32h57.6c-6.4-12.8-12.8-19.2-25.6-32l-32-76.8z m-640 121.6h224c19.2 0 32-12.8 32-32 0-12.8-12.8-25.6-32-32h-224c-19.2 0-32 12.8-32 32 6.4 19.2 19.2 32 32 32z m-32 358.4c0 19.2 12.8 32 32 32h512c19.2 0 32-12.8 32-32s-12.8-32-32-32h-512c-12.8 0-32 12.8-32 32z m358.4-217.6H172.8c-19.2 0-32 12.8-32 32s12.8 32 32 32h326.4c19.2 0 32-12.8 32-32s-12.8-32-32-32z m332.8 64c-12.8 0-25.6 6.4-25.6 19.2V793.6c0 25.6-19.2 38.4-38.4 38.4H102.4C76.8 832 64 819.2 64 793.6v-800c0-25.6 19.2-38.4 38.4-38.4h371.2c12.8-6.4 19.2-12.8 19.2-25.6s-6.4-25.6-19.2-25.6H83.2C38.4-96 0-57.6 0-12.8V812.8C0 857.6 38.4 896 83.2 896h697.6C825.6 896 864 857.6 864 812.8v-326.4c-12.8-12.8-19.2-19.2-32-19.2z"  horiz-adv-x="1024" />

    


  </font>
</defs>
</svg>
